<?xml version="1.0" encoding="UTF-8" standalone="no"?>
<svg
   viewBox="0 0 128 128"
   version="1.1"
   id="svg1"
   sodipodi:docname="git-original.svg"
   xml:space="preserve"
   inkscape:version="1.4.2 (f4327f4, 2025-05-13)"
   xmlns:inkscape="http://www.inkscape.org/namespaces/inkscape"
   xmlns:sodipodi="http://sodipodi.sourceforge.net/DTD/sodipodi-0.dtd"
   xmlns="http://www.w3.org/2000/svg"
   xmlns:svg="http://www.w3.org/2000/svg"><defs
     id="defs1" /><sodipodi:namedview
     id="namedview1"
     pagecolor="#ffffff"
     bordercolor="#000000"
     borderopacity="0.25"
     inkscape:showpageshadow="2"
     inkscape:pageopacity="0.0"
     inkscape:pagecheckerboard="0"
     inkscape:deskcolor="#d1d1d1"
     inkscape:zoom="3.0585938"
     inkscape:cx="175.73435"
     inkscape:cy="81.573435"
     inkscape:window-width="1920"
     inkscape:window-height="1001"
     inkscape:window-x="-9"
     inkscape:window-y="-9"
     inkscape:window-maximized="1"
     inkscape:current-layer="svg1" /><style
     type="text/css"
     id="style1">
	.st0{fill:#00005B;}
	.st1{fill:#9999FF;}
</style><style
     type="text/css"
     id="style1-9">
	.st0{fill:#00005B;}
	.st1{fill:#9999FF;}
</style><g
     id="vlpa"
     transform="matrix(0.51094083,0,0,0.53612558,3.0344802,1.6181354)">
	<g
   id="vlpb">
		<g
   id="vlpc">
			<g
   id="vlpd">
				<path
   class="st0"
   d="m 42.5,0 h 155 C 221,0 240,19 240,42.5 v 149 C 240,215 221,234 197.5,234 H 42.5 C 19,234 0,215 0,191.5 V 42.5 C 0,19 19,0 42.5,0 Z"
   id="path1" />
			</g>
		</g>
	</g>
	<g
   id="vlpe">
		<g
   id="vlpf">
			<path
   class="st1"
   d="M 96.4,140 H 59.2 l -7.6,23.6 c -0.2,0.9 -1,1.5 -1.9,1.4 H 30.9 c -1.1,0 -1.4,-0.6 -1.1,-1.8 L 62,70.9 c 0.3,-1 0.6,-1.9 1,-3.1 0.4,-2.1 0.6,-4.3 0.6,-6.5 -0.1,-0.5 0.3,-1 0.8,-1.1 h 0.3 25.6 c 0.7,0 1.2,0.3 1.3,0.8 l 36.5,102 c 0.3,1.1 0,1.6 -1,1.6 h -20.9 c -0.7,0.1 -1.4,-0.4 -1.6,-1.1 l -8.2,-24 z M 65,120.1 h 25.4 c -0.6,-2.1 -1.4,-4.6 -2.3,-7.2 -0.9,-2.7 -1.8,-5.6 -2.7,-8.6 -1,-3.1 -1.9,-6.1 -2.9,-9.2 -1,-3.1 -1.9,-6 -2.7,-8.9 -0.8,-2.8 -1.5,-5.4 -2.2,-7.8 h -0.2 c -0.9,4.3 -2,8.6 -3.4,12.9 -1.5,4.8 -3,9.8 -4.6,14.8 -1.3,5.1 -2.9,9.8 -4.4,14 z"
   id="path2-4" />
			<path
   class="st1"
   d="m 187,131 h -31.7 c 0.4,3.1 1.4,6.2 3.1,8.9 1.8,2.7 4.3,4.8 7.3,6 4,1.7 8.4,2.6 12.8,2.5 3.5,-0.1 7,-0.4 10.4,-1.1 3.1,-0.4 6.1,-1.2 8.9,-2.3 0.5,-0.4 0.8,-0.2 0.8,0.8 v 15.3 c 0,0.4 -0.1,0.8 -0.2,1.2 -0.2,0.3 -0.4,0.5 -0.7,0.7 -3.2,1.4 -6.5,2.4 -10,3 -4.7,0.9 -9.4,1.3 -14.2,1.2 -7.6,0 -14,-1.2 -19.2,-3.5 -4.9,-2.1 -9.2,-5.4 -12.6,-9.5 -3.2,-3.9 -5.5,-8.3 -6.9,-13.1 -1.4,-4.7 -2.1,-9.6 -2.1,-14.6 0,-5.4 0.8,-10.7 2.5,-15.9 1.6,-5 4.1,-9.6 7.5,-13.7 3.3,-4 7.4,-7.2 12.1,-9.5 4.7,-2.3 10.3,-3.1 16.7,-3.1 5.3,-0.1 10.6,0.9 15.5,3.1 4.1,1.8 7.7,4.5 10.5,8 2.6,3.4 4.7,7.2 6,11.4 1.3,4 1.9,8.1 1.9,12.2 0,2.4 -0.1,4.5 -0.2,6.4 -0.2,1.9 -0.3,3.3 -0.4,4.2 -0.1,0.7 -0.7,1.3 -1.4,1.3 -0.6,0 -1.7,0.1 -3.3,0.2 -1.6,0.2 -3.5,0.3 -5.8,0.3 -2.3,0 -4.7,-0.4 -7.3,-0.4 z m -31.7,-14.6 h 21.1 c 2.6,0 4.5,0 5.7,-0.1 0.8,-0.1 1.6,-0.3 2.3,-0.8 v -1 c 0,-1.3 -0.2,-2.5 -0.6,-3.7 -1.8,-5.6 -7.1,-9.4 -13,-9.2 -5.5,-0.3 -10.7,2.6 -13.3,7.6 -1.2,2.3 -1.9,4.7 -2.2,7.2 z"
   id="path3-8" />
		</g>
	</g>
</g></svg>
