<?xml version="1.0" encoding="UTF-8" standalone="no"?>
<svg
   xml:space="preserve"
   viewBox="0 0 128 128"
   version="1.1"
   id="svg2"
   sodipodi:docname="github-icon.svg"
   inkscape:version="1.4.2 (f4327f4, 2025-05-13)"
   xmlns:inkscape="http://www.inkscape.org/namespaces/inkscape"
   xmlns:sodipodi="http://sodipodi.sourceforge.net/DTD/sodipodi-0.dtd"
   xmlns="http://www.w3.org/2000/svg"
   xmlns:svg="http://www.w3.org/2000/svg"><defs
     id="defs2"><style
       id="style1">.cls-1{fill:#0a66c2;}.cls-1,.cls-2{fill-rule:evenodd;}.cls-2{fill:#fff;}</style><style
       id="style1-4">.cls-1{fill:#1769ff;}.cls-1,.cls-2{fill-rule:evenodd;}.cls-2{fill:#fff;}</style></defs><sodipodi:namedview
     id="namedview2"
     pagecolor="#ffffff"
     bordercolor="#000000"
     borderopacity="0.25"
     inkscape:showpageshadow="2"
     inkscape:pageopacity="0.0"
     inkscape:pagecheckerboard="0"
     inkscape:deskcolor="#d1d1d1"
     showgrid="false"
     inkscape:zoom="3.0585938"
     inkscape:cx="53.128991"
     inkscape:cy="72.745849"
     inkscape:window-width="1920"
     inkscape:window-height="1001"
     inkscape:window-x="-9"
     inkscape:window-y="-9"
     inkscape:window-maximized="1"
     inkscape:current-layer="svg2" /><g
     id="g3"
     transform="matrix(1.0266071,0,0,1.0266071,1.2598722,0.73496802)"><path
       class="cls-1"
       d="m 25.2,0 h 72.48 a 25.27,25.27 0 0 1 25.2,25.2 v 72.48 a 25.27,25.27 0 0 1 -25.2,25.2 H 25.2 A 25.27,25.27 0 0 1 0,97.68 V 25.2 A 25.27,25.27 0 0 1 25.2,0 Z"
       id="path1-4" /><path
       class="cls-2"
       d="m 75.25,74.38 a 8.23,8.23 0 0 0 9.49,0.54 5.26,5.26 0 0 0 2.17,-2.62 h 7.15 c -1.15,3.56 -2.89,6.09 -5.27,7.62 a 15.42,15.42 0 0 1 -8.56,2.31 17.09,17.09 0 0 1 -6.31,-1.12 13.36,13.36 0 0 1 -4.77,-3.18 14.64,14.64 0 0 1 -3,-4.92 18.24,18.24 0 0 1 -1.06,-6.31 17.34,17.34 0 0 1 1.09,-6.18 14.43,14.43 0 0 1 3.1,-5 14.76,14.76 0 0 1 4.8,-3.29 15.37,15.37 0 0 1 6.17,-1.21 13.9,13.9 0 0 1 6.57,1.47 13.3,13.3 0 0 1 4.62,3.91 15.9,15.9 0 0 1 2.56,5.67 21.12,21.12 0 0 1 0.57,6.59 H 73.24 a 8.22,8.22 0 0 0 2,5.71 z M 47.49,40.64 a 25,25 0 0 1 5.33,0.52 11.45,11.45 0 0 1 4.12,1.69 8,8 0 0 1 2.68,3.15 11,11 0 0 1 0.93,4.79 9,9 0 0 1 -1.4,5.15 10.29,10.29 0 0 1 -4.15,3.34 9.78,9.78 0 0 1 5.62,3.8 A 12.62,12.62 0 0 1 61.25,75 10.43,10.43 0 0 1 58,78.69 14.27,14.27 0 0 1 53.36,80.8 21.08,21.08 0 0 1 48.02,81.49 H 28.24 V 40.65 h 19.25 z m -0.67,33.88 a 11.3,11.3 0 0 0 2.51,-0.26 5.8,5.8 0 0 0 2.11,-0.87 4.3,4.3 0 0 0 1.47,-1.63 5.69,5.69 0 0 0 0.53,-2.64 c 0,-2.1 -0.6,-3.61 -1.78,-4.52 A 7.52,7.52 0 0 0 47,63.27 h -9.78 v 11.24 h 9.6 v 0 z m -0.5,-17.39 a 6.47,6.47 0 0 0 4,-1.14 4.28,4.28 0 0 0 1.53,-3.71 4.87,4.87 0 0 0 -0.51,-2.35 3.72,3.72 0 0 0 -1.39,-1.42 5.42,5.42 0 0 0 -2,-0.72 12.49,12.49 0 0 0 -2.31,-0.2 h -8.4 v 9.54 h 9.1 z M 71.57,43.94 h 16.56 v 4 H 71.57 Z m 13,14.91 A 6.11,6.11 0 0 0 80,57.2 a 7,7 0 0 0 -3.23,0.66 6.39,6.39 0 0 0 -2.06,1.64 5.68,5.68 0 0 0 -1.08,2.08 9.26,9.26 0 0 0 -0.38,2 H 86.46 A 7.91,7.91 0 0 0 84.58,58.9 Z"
       id="path2-6" /></g></svg>
