<?xml version="1.0" encoding="UTF-8" standalone="no"?>
<svg
   viewBox="0 0 128 128"
   version="1.1"
   id="svg1"
   sodipodi:docname="git-original.svg"
   xml:space="preserve"
   inkscape:version="1.4.2 (f4327f4, 2025-05-13)"
   xmlns:inkscape="http://www.inkscape.org/namespaces/inkscape"
   xmlns:sodipodi="http://sodipodi.sourceforge.net/DTD/sodipodi-0.dtd"
   xmlns="http://www.w3.org/2000/svg"
   xmlns:svg="http://www.w3.org/2000/svg"><defs
     id="defs1" /><sodipodi:namedview
     id="namedview1"
     pagecolor="#ffffff"
     bordercolor="#000000"
     borderopacity="0.25"
     inkscape:showpageshadow="2"
     inkscape:pageopacity="0.0"
     inkscape:pagecheckerboard="0"
     inkscape:deskcolor="#d1d1d1"
     inkscape:zoom="3.0585938"
     inkscape:cx="175.73435"
     inkscape:cy="81.573435"
     inkscape:window-width="1920"
     inkscape:window-height="1001"
     inkscape:window-x="-9"
     inkscape:window-y="-9"
     inkscape:window-maximized="1"
     inkscape:current-layer="svg1" /><style
     type="text/css"
     id="style1">
	.st0{fill:#00005B;}
	.st1{fill:#9999FF;}
</style><g
     id="g1"
     transform="matrix(0.51502767,0,0,0.53612557,2.1966792,1.6002553)"><path
       class="st0"
       d="m 42.5,0 h 155 C 221,0 240,19 240,42.5 v 149 C 240,215 221,234 197.5,234 H 42.5 C 19,234 0,215 0,191.5 V 42.5 C 0,19 19,0 42.5,0 Z"
       id="path1-0" /><path
       class="st1"
       d="m 114.8,145.3 v 16.6 c 0.1,1 -0.4,1.9 -1.3,2.3 -3.1,1.1 -6.2,1.8 -9.5,2.2 -4.2,0.5 -8.4,0.7 -12.6,0.7 -6,0 -12,-0.7 -17.8,-2.2 -5.4,-1.4 -10.6,-3.6 -15.4,-6.6 -4.6,-2.9 -8.6,-6.6 -11.9,-10.9 -3.4,-4.5 -6.1,-9.6 -7.7,-15 -1.9,-6.3 -2.8,-12.8 -2.7,-19.3 0,-10.8 2.4,-20.4 7.1,-28.6 4.7,-8.2 11.7,-14.9 20.1,-19.2 9.6,-4.9 20.3,-7.4 31.1,-7.2 4.2,0 8.3,0.2 12.5,0.6 2.9,0.3 5.7,1 8.5,1.9 0.6,0.5 0.9,1.2 0.8,1.9 v 18.1 c 0,1 -0.4,1.3 -1.1,1 -3,-1.4 -6.3,-2.4 -9.6,-2.9 -3.9,-0.6 -7.8,-0.9 -11.8,-0.9 -6.5,-0.1 -12.9,1.4 -18.5,4.5 -5,2.8 -9.2,6.9 -11.9,12 -2.9,5.6 -4.3,11.8 -4.2,18.1 -0.1,4.5 0.6,8.9 2,13.2 1.2,3.6 3.1,6.9 5.6,9.8 2.2,2.7 5,4.9 8,6.6 3,1.6 6.2,2.8 9.6,3.6 3.2,0.9 6.6,1.4 9.9,1.5 3.6,0 7.3,-0.1 10.9,-0.5 3,-0.4 5.9,-1.1 8.7,-2.2 0.4,-0.3 0.7,-0.4 1,-0.2 0.2,0.3 0.3,0.7 0.2,1.1 z"
       id="path2" /><path
       class="st1"
       d="m 151.8,107.3 v 56.4 c 0,0.9 -0.4,1.3 -1.1,1.3 h -20.1 c -0.7,0.1 -1.3,-0.4 -1.4,-1.1 0,-0.1 0,-0.2 0,-0.4 V 52.4 c 0,-0.7 0.4,-1.1 1.3,-1.1 h 20.3 c 0.5,-0.1 1.1,0.3 1.1,0.8 0,0.1 0,0.2 0,0.3 l 0.1,38 c 2.9,-1.9 6,-3.5 9.3,-4.7 3.4,-1.2 7.3,-1.5 11.8,-1.5 3.2,0 6.4,0.5 9.4,1.4 3.2,0.9 6.2,2.5 8.8,4.7 2.7,2.4 4.6,5.7 6.2,9.8 1.6,4.1 2.4,9.5 2.4,16 v 47.4 c 0,1 -0.4,1.4 -1.3,1.4 h -18.9 c -0.8,0.1 -1.5,-0.4 -1.6,-1.2 0,-0.1 0,-0.3 0,-0.4 v -45 c 0.1,-2.9 -0.4,-5.8 -1.5,-8.5 -0.9,-2 -2.3,-3.8 -4.2,-5.1 -2.2,-1.3 -4.8,-1.9 -7.4,-1.8 -2.4,0 -4.8,0.3 -7.1,1 -2.2,0.9 -4.3,2 -6.1,3.4 z"
       id="path3" /></g></svg>
