<?xml version="1.0" encoding="UTF-8" standalone="no"?>
<svg
   viewBox="0 0 128 128"
   version="1.1"
   id="svg1"
   sodipodi:docname="audition-icon.svg"
   xml:space="preserve"
   inkscape:version="1.4.2 (f4327f4, 2025-05-13)"
   xmlns:inkscape="http://www.inkscape.org/namespaces/inkscape"
   xmlns:sodipodi="http://sodipodi.sourceforge.net/DTD/sodipodi-0.dtd"
   xmlns="http://www.w3.org/2000/svg"
   xmlns:svg="http://www.w3.org/2000/svg"><defs
     id="defs1" /><sodipodi:namedview
     id="namedview1"
     pagecolor="#ffffff"
     bordercolor="#000000"
     borderopacity="0.25"
     inkscape:showpageshadow="2"
     inkscape:pageopacity="0.0"
     inkscape:pagecheckerboard="0"
     inkscape:deskcolor="#d1d1d1"
     inkscape:zoom="4.3255048"
     inkscape:cx="95.364591"
     inkscape:cy="65.310296"
     inkscape:window-width="1920"
     inkscape:window-height="1001"
     inkscape:window-x="-9"
     inkscape:window-y="-9"
     inkscape:window-maximized="1"
     inkscape:current-layer="svg1" /><style
     type="text/css"
     id="style1">
	.st0{fill:#00005B;}
	.st1{fill:#9999FF;}
</style><style
     type="text/css"
     id="style1-9">
	.st0{fill:#00005B;}
	.st1{fill:#9999FF;}
</style><style
     type="text/css"
     id="style1-4"><![CDATA[
	.st0{fill:url(#SVGID_1_);}
	.st1{fill:url(#SVGID_2_);}
	.st2{fill:url(#SVGID_3_);}
	.st3{fill:url(#SVGID_4_);}
	.st4{fill:url(#SVGID_5_);}
	.st5{fill:url(#SVGID_6_);}
	.st6{fill:url(#SVGID_7_);}
	.st7{fill:url(#SVGID_8_);}
	.st8{fill:url(#SVGID_9_);}
	.st9{fill:#2AC64B;}
	.st10{fill:#97CC1A;}
	.st11{fill:#666565;}
	.st12{fill:#00863F;}
	.st13{fill:#008A5A;}
	.st14{fill:#009550;}
	.st15{fill:#00983E;}
	.st16{fill:#009A37;}
	.st17{fill:#06CBF6;}
	.st18{fill:url(#SVGID_10_);}
]]></style><g
     id="g2"
     transform="matrix(2.6144147,0,0,2.6144147,1.7327618,1.0046684)"><path
       fill="#00933e"
       d="m 18.376,15.078 c -0.067,-0.875 -0.027,-1.751 0,-2.626 0.072,-2.274 0.312,-4.526 0.917,-6.727 0.146,-0.53 0.293,-1.061 0.558,-1.548 0.055,-0.011 0.111,-0.025 0.167,-0.032 0.644,-0.08 1.285,-0.173 1.933,-0.225 0.663,-0.053 1.326,-0.099 1.991,-0.119 0.482,-0.014 0.964,-0.002 1.446,-0.001 0.28,0.001 0.562,-0.009 0.841,0.006 0.606,0.032 1.212,0.077 1.818,0.116 0.342,0.668 0.557,1.382 0.744,2.104 0.471,1.815 0.692,3.667 0.798,5.536 0.067,1.193 0.091,2.387 0.058,3.58 -0.048,1.739 -0.16,3.541 -0.352,5.27 -0.047,-0.018 -2.072,-1.348 -3.08,-1.902 -1.141,-0.628 -2.309,-1.2 -3.495,-1.734 -1.014,-0.457 -2.044,-0.878 -3.086,-1.265 -0.415,-0.154 -0.819,-0.347 -1.258,-0.433 z"
       id="path1-1" /><path
       fill="#2ac54b"
       d="m 18.376,15.078 c 0.439,0.086 0.843,0.278 1.258,0.433 1.043,0.387 2.072,0.809 3.086,1.265 1.186,0.534 2.354,1.107 3.495,1.734 1.007,0.554 1.994,1.141 2.948,1.782 0.04,0.027 0.106,0.073 0.135,0.087 -0.021,0.185 -0.037,0.338 -0.058,0.523 -0.092,0.018 -0.176,0.06 -0.257,0.104 -1.218,0.656 -2.371,1.41 -3.447,2.278 -0.835,0.674 -1.617,1.404 -2.346,2.194 -0.493,0.534 -0.948,1.099 -1.425,1.646 -0.535,-0.664 -1.068,-1.33 -1.636,-1.966 -0.31,-0.347 -0.601,-0.712 -0.956,-1.017 -0.205,-1.392 -0.386,-2.787 -0.521,-4.186 -0.111,-1.15 -0.202,-2.302 -0.245,-3.458 -0.016,-0.472 -0.043,-0.945 -0.031,-1.419 z"
       id="path2" /><path
       fill="#00933e"
       d="m 34.052,18.965 c 0.103,-0.805 0.217,-1.607 0.282,-2.417 0.114,-1.429 0.105,-2.855 -0.044,-4.282 -0.162,-1.54 -0.459,-3.05 -0.954,-4.52 C 32.955,6.613 32.458,5.535 31.831,4.517 31.809,4.482 31.797,4.441 31.78,4.402 c 0.754,0.101 1.494,0.272 2.241,0.411 0.376,0.07 0.741,0.2 1.125,0.231 0.473,0.477 0.844,1.032 1.202,1.595 0.959,1.51 1.588,3.148 1.849,4.921 0.17,1.15 0.172,2.306 0.087,3.463 -0.074,1.004 -0.224,1.998 -0.42,2.985 -0.011,0.056 -0.031,0.11 -0.047,0.165 -1.278,0.16 -2.528,0.448 -3.765,0.792 z"
       id="path3-3" /><path
       fill="#607d8b"
       d="m 24.003,43.764 c 1.13,0 2.259,0.003 3.389,-0.003 0.16,-0.001 0.207,0.019 0.164,0.199 -0.302,1.286 -0.593,2.574 -0.881,3.863 C 26.644,47.964 26.586,48 26.446,48 c -1.633,-0.005 -3.267,-0.005 -4.9,0 -0.129,0 -0.187,-0.034 -0.216,-0.163 -0.288,-1.281 -0.575,-2.563 -0.88,-3.84 -0.055,-0.23 0.024,-0.236 0.207,-0.235 1.115,0.006 2.231,0.002 3.346,0.002 z"
       id="path4-8" /><path
       fill="#00933e"
       d="m 15.717,5.269 c -0.237,0.537 -0.514,1.056 -0.731,1.603 -0.596,1.509 -0.975,3.073 -1.189,4.679 -0.08,0.598 -0.135,1.199 -0.178,1.8 -0.034,0.137 -0.092,0.198 -0.252,0.137 -0.207,-0.078 -0.424,-0.129 -0.64,-0.182 -1.007,-0.247 -2.014,-0.491 -3.021,-0.737 0.022,-0.61 0.124,-1.209 0.248,-1.806 0.234,-1.131 0.644,-2.198 1.177,-3.22 0.03,-0.057 0.068,-0.109 0.102,-0.164 0.033,-0.011 0.07,-0.016 0.099,-0.034 0.814,-0.508 1.658,-0.959 2.534,-1.348 0.606,-0.268 1.211,-0.544 1.851,-0.728 z"
       id="path5-7" /><path
       fill="#2196f3"
       d="M 28.047,3.922 C 27.441,3.883 26.835,3.838 26.229,3.806 25.949,3.791 25.668,3.8 25.388,3.8 24.906,3.799 24.424,3.787 23.942,3.801 c -0.664,0.02 -1.328,0.065 -1.991,0.119 -0.648,0.052 -1.289,0.145 -1.933,0.225 -0.056,0.007 -0.111,0.021 -0.167,0.032 0.37,-0.954 0.903,-1.809 1.586,-2.568 0.519,-0.577 1.131,-1.028 1.81,-1.408 0.547,-0.336 1.08,-0.201 1.595,0.046 1.104,0.608 1.943,1.476 2.604,2.533 0.23,0.366 0.434,0.745 0.601,1.142 z"
       id="path6-4" /><path
       fill="#2ac54b"
       d="m 9.707,12.57 c 1.007,0.245 2.014,0.489 3.021,0.737 0.215,0.053 0.433,0.103 0.64,0.182 0.16,0.06 0.218,0 0.252,-0.137 -0.038,0.718 -0.049,1.437 -0.017,2.155 0.056,1.249 0.192,2.491 0.4,3.724 0.016,0.097 0.044,0.195 0.02,0.295 C 13.554,19.21 13.086,18.892 12.616,18.578 11.834,18.055 11.026,17.577 10.202,17.123 10.127,17.082 10.047,17.049 9.969,17.012 9.72,15.541 9.609,14.062 9.707,12.57 Z"
       id="path7-2" /><path
       fill="#00933e"
       d="m 40.834,17.891 c -0.467,0.028 -0.935,0.055 -1.402,0.083 0.303,-1.508 0.535,-3.028 0.538,-4.569 0.003,-2.023 -0.424,-3.957 -1.304,-5.786 -0.321,-0.667 -0.712,-1.292 -1.105,-1.917 0.076,0.018 0.151,0.034 0.227,0.053 0.301,0.074 0.585,0.208 0.896,0.243 0,0 0.012,0.009 0.011,0.009 0.013,0.012 0.026,0.023 0.04,0.035 0.505,0.575 0.908,1.22 1.283,1.882 0.635,1.12 1.093,2.307 1.321,3.579 0.173,0.965 0.152,1.933 0.058,2.902 -0.107,1.102 -0.274,2.196 -0.508,3.278 -0.016,0.069 -0.037,0.138 -0.055,0.208 z"
       id="path8-7" /><path
       fill="#2196f3"
       d="M 35.145,5.046 C 34.761,5.014 34.397,4.885 34.02,4.815 33.273,4.676 32.533,4.504 31.779,4.404 31.379,3.817 30.97,3.236 30.493,2.707 29.457,1.557 28.357,0.634 26.935,0 c 1.635,0.351 3.062,0.972 4.481,1.847 1.38,0.852 2.606,1.884 3.667,3.112 0.023,0.027 0.041,0.058 0.062,0.087 z"
       id="path9-7" /><path
       fill="#90caf9"
       d="m 15.717,5.269 c -0.64,0.184 -1.245,0.46 -1.851,0.729 -0.876,0.389 -1.721,0.84 -2.534,1.348 -0.029,0.018 -0.066,0.023 -0.099,0.034 0.956,-1.728 2.218,-3.195 3.769,-4.414 0.038,-0.03 0.068,-0.078 0.127,-0.07 0.476,0.329 0.951,0.657 1.427,0.986 -0.279,0.463 -0.559,0.925 -0.839,1.387 z"
       id="path10" /><path
       fill="#90caf9"
       d="M 6.819,10.913 C 6.87,10.498 7.017,10.108 7.16,9.72 7.725,8.194 8.576,6.837 9.621,5.596 10.52,4.529 11.537,3.591 12.698,2.813 13.103,2.542 13.522,2.294 13.985,2.128 13.503,2.493 13.028,2.865 12.583,3.274 10.839,4.88 9.534,6.779 8.75,9.025 8.729,9.086 8.709,9.147 8.688,9.208 8.075,9.737 7.464,10.267 6.905,10.854 6.881,10.879 6.848,10.894 6.819,10.913 Z"
       id="path11" /><path
       fill="#2ac54b"
       d="M 8.24,16.121 C 7.792,15.942 7.345,15.763 6.897,15.585 6.851,15.567 6.803,15.553 6.756,15.537 6.66,15.139 6.643,14.731 6.604,14.327 6.529,13.541 6.49,12.754 6.602,11.967 c 0.492,0.091 0.983,0.181 1.475,0.272 -0.095,1.214 -0.026,2.421 0.145,3.625 0.012,0.084 0.013,0.171 0.018,0.257 z"
       id="path12-9" /><path
       fill="#00933e"
       d="M 8.077,12.238 C 7.585,12.147 7.094,12.057 6.602,11.966 6.656,11.611 6.675,11.249 6.819,10.913 6.848,10.894 6.882,10.879 6.905,10.854 7.464,10.267 8.075,9.736 8.688,9.208 8.463,9.972 8.261,10.741 8.163,11.534 c -0.03,0.235 -0.058,0.47 -0.086,0.704 z"
       id="path13" /><path
       fill="#2196f3"
       d="M 38.663,5.937 C 37.618,4.654 36.437,3.519 35.029,2.638 34.701,2.433 34.371,2.219 33.987,2.122 c 1.398,0.986 2.58,2.189 3.573,3.579 0.076,0.018 0.151,0.034 0.227,0.053 0.301,0.074 0.585,0.208 0.896,0.243 -0.006,-0.021 -0.007,-0.045 -0.02,-0.06 z"
       id="path14" /><path
       fill="#ff6f00"
       d="m 27.834,36.981 c 0.193,0.346 0.346,0.711 0.487,1.08 -0.84,1.014 -1.726,1.987 -2.66,2.916 -0.009,-0.009 -0.083,0.077 -0.028,-0.026 0.491,-0.81 0.971,-1.626 1.411,-2.465 0.263,-0.502 0.527,-1.003 0.79,-1.505 z"
       id="path15" /><path
       fill="#2196f3"
       d="m 20.31,0.18 c -0.629,0.191 -1.258,0.384 -1.843,0.694 -0.06,0.022 -0.122,0.039 -0.179,0.065 -0.887,0.407 -1.729,0.893 -2.524,1.457 -0.219,0.155 -0.439,0.285 -0.678,0.499 0.476,0.329 0.996,0.658 1.471,0.987 0.396,-0.5 0.773,-1.016 1.224,-1.47 0.257,-0.259 0.516,-0.517 0.774,-0.775 0.074,0 0.111,-0.062 0.158,-0.103 0.338,-0.292 0.697,-0.554 1.068,-0.801 0.41,-0.274 0.847,-0.5 1.285,-0.729 -0.258,0.047 -0.51,0.101 -0.756,0.176 z"
       id="path16-3" /><path
       fill="#ff6f00"
       d="m 28.647,38.814 c 0.044,0.103 0.087,0.206 0.131,0.309 -0.551,0.605 -1.796,1.892 -1.81,1.879 0.536,-0.68 1.142,-1.508 1.679,-2.188 z"
       id="path17" /><polygon
       fill="#9a2150"
       points="25.547,41.093 25.559,41.092 25.557,41.09 "
       id="polygon17" /><path
       fill="#2ac54b"
       d="m 14.053,19.571 c -0.011,-0.016 -0.022,-0.032 -0.033,-0.047 0.049,-0.011 0.033,0.023 0.033,0.047 z"
       id="path18" /><path
       fill="#2ac54b"
       d="m 38.734,6.04 c -0.013,-0.012 -0.026,-0.024 -0.04,-0.035 0.014,0.012 0.027,0.024 0.04,0.035 z"
       id="path19" /><path
       fill="#ff6f00"
       d="m 26.201,33.781 0.007,-0.014 -0.187,-0.305 c -0.483,-0.847 -1.038,-1.653 -1.542,-2.514 -1.429,-2.442 -3.783,-5.153 -4.351,-5.789 -0.31,-0.347 -0.601,-0.712 -0.956,-1.017 0.178,1.153 0.362,2.306 0.59,3.45 0.123,0.617 0.389,1.847 0.389,1.847 l 0.871,3.765 c 0.007,0.035 0.013,0.07 0.021,0.105 0.008,0.031 0.017,0.061 0.024,0.092 l 0.031,0.135 0.097,0.352 c 0.29,1.164 0.589,2.327 0.917,3.481 0.26,0.914 0.531,1.826 0.799,2.738 l 0.004,0.013 v 0 c 0.101,0.344 0.202,0.688 0.301,1.033 0.041,0.14 0.101,0.194 0.254,0.188 0.36,-0.013 0.72,-0.011 1.08,-10e-4 0.134,0.004 0.186,-0.045 0.222,-0.168 0.265,-0.902 0.544,-1.801 0.805,-2.704 0.374,-1.297 0.736,-2.598 1.061,-3.908 -0.137,-0.262 -0.291,-0.518 -0.437,-0.779 z"
       id="path20-1" /><g
       id="g24"><path
         fill="#9a2150"
         d="m 16.087,27.235 c -0.856,-2.507 -1.565,-5.054 -2.034,-7.664 -0.011,-0.015 -0.022,-0.031 -0.032,-0.046 -0.468,-0.316 -0.936,-0.633 -1.405,-0.947 -0.782,-0.523 -1.59,-1.001 -2.414,-1.455 -0.075,-0.041 -0.155,-0.074 -0.233,-0.11 0.014,0.099 0.026,0.199 0.044,0.298 0.391,2.19 1.019,4.315 1.788,6.4 0.92,2.494 2.032,4.901 3.251,7.261 0.321,0.622 0.658,1.234 1.003,1.84 0.356,-0.808 0.767,-1.616 1.235,-2.331 -0.424,-1.074 -0.83,-2.153 -1.203,-3.246 z"
         id="path21-9" /><polygon
         fill="#9a2150"
         points="14.021,19.525 14.022,19.526 14.02,19.524 "
         id="polygon21" /><path
         fill="#9a2150"
         d="M 15.591,33.581 C 13.935,31.048 12.401,28.446 11.148,25.686 10.208,23.616 9.426,21.491 8.87,19.284 8.607,18.24 8.409,17.183 8.241,16.121 7.793,15.942 7.346,15.763 6.898,15.585 6.852,15.567 6.804,15.553 6.757,15.537 c 0.004,0.072 0.003,0.144 0.013,0.215 0.25,1.717 0.654,3.397 1.195,5.045 1.17,3.563 2.883,6.865 4.853,10.04 0.791,1.274 1.654,2.493 2.556,3.681 0.095,-0.262 0.196,-0.53 0.305,-0.805 -0.029,-0.044 -0.061,-0.091 -0.088,-0.132 z"
         id="path22-8" /><path
         fill="#ff6f00"
         d="m 21.166,39.749 c 0.371,0.402 0.748,0.799 1.13,1.207 0.05,-0.117 -1.189,-2.174 -1.707,-3.168 -0.59,-1.133 -2.274,-4.808 -2.296,-4.86 -0.35,-0.81 -0.681,-1.627 -1.004,-2.447 -0.468,0.715 -0.879,1.522 -1.235,2.331 0.706,1.24 1.464,2.449 2.318,3.599 0.866,1.167 1.808,2.271 2.794,3.338 z"
         id="path23" /><path
         fill="#ff6f00"
         d="m 20.105,40.054 c 0.317,0.318 0.653,0.617 0.945,0.891 0.005,0.049 -3.708,-4.718 -5.371,-7.233 -0.109,0.275 -0.21,0.544 -0.305,0.805 1.189,1.567 2.454,3.075 3.787,4.531 0.31,0.339 0.619,0.68 0.944,1.006 z"
         id="path24" /></g><path
       fill="#bed70f"
       d="m 26.641,34.561 -4.875,-7.435 c 0,0 4.157,-5.575 7.475,-6.223 0,0 -0.594,6.829 -2.6,13.658 z"
       id="path25" /><g
       id="g30"><path
         fill="#bed70f"
         d="m 32.569,25.216 c -0.951,3.113 -2.13,6.139 -3.478,9.099 -0.407,0.894 -0.837,1.777 -1.257,2.666 0.193,0.346 0.346,0.711 0.487,1.08 0.63,-0.711 1.197,-1.47 1.745,-2.244 1.435,-2.024 2.585,-4.211 3.684,-6.427 0.37,-0.745 0.715,-1.503 1.055,-2.263 0.293,-0.653 0.57,-1.311 0.838,-1.973 l -2.631,-1.558 c -0.146,0.541 -0.279,1.084 -0.443,1.62 z"
         id="path26-6" /><path
         fill="#bed70f"
         d="m 40.834,17.891 c -0.109,0.006 -0.219,0.013 -0.328,0.019 0.117,-0.004 0.228,-0.008 0.326,-0.01 0,-0.003 10e-4,-0.006 0.002,-0.009 z"
         id="path27" /><path
         fill="#bed70f"
         d="m 36.441,26.565 c -1.783,3.677 -3.964,7.11 -6.393,10.389 -0.462,0.624 -0.934,1.24 -1.401,1.86 0.044,0.103 0.087,0.206 0.131,0.309 0.05,-0.051 0.103,-0.1 0.151,-0.153 0.93,-1.03 1.831,-2.083 2.704,-3.162 2.29,-2.831 4.241,-5.88 5.907,-9.114 0.055,-0.107 0.101,-0.218 0.155,-0.325 l -0.914,-0.541 c -0.113,0.246 -0.222,0.493 -0.34,0.737 z"
         id="path28" /><path
         fill="#4caf50"
         d="m 37.815,18.175 c -1.277,0.157 -2.526,0.446 -3.764,0.79 -0.015,0.084 -0.03,0.168 -0.045,0.252 -0.252,1.479 -0.602,2.935 -0.994,4.38 l 2.631,1.558 c 0.671,-1.657 1.262,-3.343 1.73,-5.074 0.171,-0.63 0.338,-1.261 0.442,-1.906 z"
         id="path29" /><path
         fill="#4caf50"
         d="m 40.832,17.9 c -0.098,0.002 -0.209,0.006 -0.326,0.01 -0.358,0.021 -0.716,0.042 -1.074,0.063 -0.198,0.963 -0.443,1.915 -0.73,2.855 -0.523,1.712 -1.171,3.377 -1.92,5 l 0.914,0.541 c 0.818,-1.617 1.552,-3.27 2.149,-4.981 0.398,-1.142 0.738,-2.303 0.987,-3.488 z"
         id="path30-5" /></g></g></svg>
