<?xml version="1.0" encoding="UTF-8" standalone="no"?>
<svg
   version="1.1"
   viewBox="0 0 127 127"
   id="svg41"
   xml:space="preserve"
   width="127"
   height="127"
   xmlns:xlink="http://www.w3.org/1999/xlink"
   xmlns="http://www.w3.org/2000/svg"
   xmlns:svg="http://www.w3.org/2000/svg"><defs
     id="defs34"><linearGradient
       id="swatch1"><stop
         style="stop-color:#231043;stop-opacity:1;"
         offset="0"
         id="stop2" /></linearGradient><linearGradient
       id="swatch79"><stop
         style="stop-color:#000000;stop-opacity:1;"
         offset="0"
         id="stop79" /></linearGradient><linearGradient
       id="linearGradient78"
       data-name="Gradiente sem nome 72"
       x1="0.60000002"
       y1="30.299999"
       x2="25.799999"
       y2="30.299999"
       gradientTransform="matrix(1.0649637,0,0,-1.0649637,-1.942119,61.81318)"
       gradientUnits="userSpaceOnUse"
       spreadMethod="pad"><stop
         offset="0"
         stop-color="#e11dde"
         id="stop77"
         style="stop-color:#1ed3e8;stop-opacity:1;" /><stop
         offset="1"
         stop-color="#e11dde"
         id="stop78"
         style="stop-color:#ffffff;stop-opacity:1;" /></linearGradient><linearGradient
       id="linearGradient41"><stop
         style="stop-color:#3472d9;stop-opacity:1;"
         offset="0"
         id="stop4" /><stop
         style="stop-color:#1ed3e8;stop-opacity:1;"
         offset="0.06679765"
         id="stop51" /><stop
         style="stop-color:#b0eff6;stop-opacity:1;"
         offset="0.28381908"
         id="stop54" /><stop
         style="stop-color:#ffffff;stop-opacity:1;"
         offset="0.40721652"
         id="stop41" /></linearGradient><style
       id="style1">
      .cls-1 {
        fill: url(#Gradiente_sem_nome_86);
      }

      .cls-1, .cls-2, .cls-3, .cls-4, .cls-5, .cls-6, .cls-7, .cls-8, .cls-9 {
        stroke-width: 0px;
      }

      .cls-10, .cls-3, .cls-6, .cls-9 {
        isolation: isolate;
      }

      .cls-2 {
        fill: url(#Gradiente_sem_nome_66);
      }

      .cls-3 {
        fill: url(#Gradiente_sem_nome_8);
        mix-blend-mode: overlay;
        opacity: .6;
      }

      .cls-4 {
        fill: #040009;
      }

      .cls-4, .cls-6, .cls-9 {
        mix-blend-mode: multiply;
      }

      .cls-5 {
        fill: url(#Gradiente_sem_nome_72);
      }

      .cls-6 {
        fill: url(#Gradiente_sem_nome_62);
      }

      .cls-7 {
        fill: #362f8d;
      }

      .cls-8 {
        fill: url(#Gradiente_sem_nome_51);
      }

      .cls-9 {
        fill: url(#Gradiente_sem_nome_3);
      }
    </style><linearGradient
       id="Gradiente_sem_nome_86"
       data-name="Gradiente sem nome 86"
       x1="10.7"
       y1="30.299999"
       x2="52.5"
       y2="30.299999"
       gradientTransform="matrix(1.9647122,0,0,-1.9647122,-136.07195,131.35732)"
       gradientUnits="userSpaceOnUse"><stop
         offset="0.57740062"
         stop-color="#2c2f60"
         id="stop1"
         style="stop-color:#1ed3e8;stop-opacity:1;" /><stop
         offset="1"
         stop-color="#aee6f5"
         id="stop6"
         style="stop-color:#b9f0f1;stop-opacity:1;" /></linearGradient><linearGradient
       id="Gradiente_sem_nome_62"
       data-name="Gradiente sem nome 62"
       x1="15"
       y1="30.4"
       x2="45.200001"
       y2="30.4"
       gradientTransform="matrix(1.8328736,0,0,-1.8328736,-132.17612,127.34943)"
       gradientUnits="userSpaceOnUse"><stop
         offset=".2"
         stop-color="#485868"
         id="stop7" /><stop
         offset="1"
         stop-color="#fff"
         stop-opacity="0"
         id="stop8" /></linearGradient><linearGradient
       id="Gradiente_sem_nome_3"
       data-name="Gradiente sem nome 3"
       x1="12.3"
       y1="30.299999"
       x2="49.400002"
       y2="30.299999"
       gradientTransform="matrix(1.9647122,0,0,-1.9647122,-136.07195,131.35732)"
       gradientUnits="userSpaceOnUse"><stop
         offset="0"
         stop-color="#485868"
         id="stop9"
         style="stop-color:#48584c;stop-opacity:1;" /><stop
         offset="1"
         stop-color="#fff"
         stop-opacity="0"
         id="stop10" /></linearGradient><linearGradient
       id="Gradiente_sem_nome_72"
       data-name="Gradiente sem nome 72"
       x1="0.60000002"
       y1="30.299999"
       x2="25.799999"
       y2="30.299999"
       gradientTransform="matrix(1.9647122,0,0,-1.9647122,-136.07195,131.35732)"
       gradientUnits="userSpaceOnUse"
       xlink:href="#linearGradient78"><stop
         offset="0.81054419"
         stop-color="#e11dde"
         id="stop53"
         style="stop-color:#1ed3e8;stop-opacity:1;" /><stop
         offset="1"
         stop-color="#e11dde"
         id="stop3"
         style="stop-color:#aee0ef;stop-opacity:1;" /></linearGradient><linearGradient
       xlink:href="#linearGradient41"
       id="linearGradient42"
       x1="4.3781977"
       y1="29.273808"
       x2="26.292501"
       y2="29.273808"
       gradientUnits="userSpaceOnUse"
       gradientTransform="matrix(1.4316524,0,0,1.4784189,-121.8173,28.351121)" /><linearGradient
       xlink:href="#swatch79"
       id="linearGradient79"
       x1="7.9620428"
       y1="29.491531"
       x2="29.47431"
       y2="29.491531"
       gradientUnits="userSpaceOnUse"
       gradientTransform="matrix(1.8448631,0,0,1.8448631,-132.48901,17.320469)" /><linearGradient
       xlink:href="#swatch1"
       id="linearGradient2"
       x1="3.0000001e-06"
       y1="63.5"
       x2="127"
       y2="63.5"
       gradientUnits="userSpaceOnUse"
       gradientTransform="translate(1.4e-6)" /></defs><path
     class="cls-1"
     d="M 28.680421,0.2945615 H 98.319577 A 28.763101,28.763101 0 0 1 127,28.974979 V 98.035358 A 28.763101,28.763101 0 0 1 98.319577,126.70544 H 28.680421 A 28.763101,28.763101 0 0 1 1.4e-6,98.035358 V 28.974979 A 28.763101,28.763101 0 0 1 28.680421,0.2945615 Z"
     id="path1"
     style="fill:#7c3aed;fill-opacity:1;fill-rule:evenodd;stroke:url(#linearGradient2)" /><g
     id="g4"
     transform="translate(142.82405,-10.119094)"><path
       class="cls-4"
       d="M -77.422282,35.724456 H -117.89535 V 115.2953 h 40.473068 c 22.397719,0 40.669541,-17.878882 40.669541,-39.687186 0,-21.808305 -18.271822,-39.687187 -40.669541,-39.687187 z m 0,59.334308 c -11.198859,0 -20.040063,-8.841205 -20.040063,-19.647122 0,-10.805917 9.037676,-19.647122 20.040063,-19.647122 11.002387,0 20.040064,8.841205 20.040064,19.647122 0,10.805917 -9.037677,19.647122 -20.040064,19.647122 z"
       id="path34"
       style="isolation:isolate;fill:#0b0b0f;fill-opacity:1;stroke:#000000;stroke-width:3.68973;stroke-dasharray:none;stroke-opacity:1" /><path
       class="cls-1"
       d="m -78.112945,31.942888 h -39.490715 v 79.570842 h 39.687186 c 22.004776,0 39.883658,-17.878881 39.883658,-39.883657 0,-22.004776 -17.878882,-39.687185 -39.883658,-39.687185 z m 0,59.334307 c -10.805917,0 -19.64712,-8.841205 -19.64712,-19.647122 0,-10.805917 8.841203,-19.647122 19.64712,-19.647122 10.805917,0 19.647122,8.841205 19.647122,19.647122 0,10.805917 -8.841205,19.647122 -19.647122,19.647122 z"
       id="path35"
       style="isolation:isolate;fill:url(#Gradiente_sem_nome_86);stroke:#000000;stroke-width:3.68973;stroke-dasharray:none;stroke-opacity:1" /><path
       class="cls-6"
       d="m -78.106353,39.188211 h -32.258577 v 64.883729 h 32.258577 c 17.962161,0 32.441862,-14.479706 32.441862,-32.441867 0,-17.962161 -14.479701,-32.441862 -32.441862,-32.441862 z m 0,50.770599 c -10.080804,0 -18.328735,-8.247933 -18.328735,-18.328737 0,-10.080804 8.247931,-18.328737 18.328735,-18.328737 10.080804,0 18.328737,8.247933 18.328737,18.328737 0,10.080804 -8.247933,18.328737 -18.328737,18.328737 z"
       id="path36"
       style="fill:url(#Gradiente_sem_nome_62)" /><path
       class="cls-9"
       d="m -78.702358,91.277195 c -11.788273,-0.785884 -20.433007,-8.25179 -20.433007,-19.057709 0,-10.805916 6.680023,-19.057707 20.433007,-20.236535 h 1.178827 C -85.382381,39.998207 -100.51066,31.746416 -117.80013,31.746416 v 0 79.570844 0 c 17.28947,0 32.221279,-8.05532 40.276599,-20.236535 -0.392943,0 -0.785884,0 -1.178827,0 z"
       id="path37"
       style="fill:url(#Gradiente_sem_nome_3)" /><path
       class="cls-5"
       d="m -117.80013,31.942888 v 0 79.570842 0 c 22.004776,0 39.687185,-17.878881 39.687185,-39.883657 0,-22.004776 -17.682409,-39.687185 -39.687185,-39.687185 z"
       id="path38"
       style="isolation:isolate;fill:url(#Gradiente_sem_nome_72);stroke:url(#linearGradient79);stroke-width:3.68973;stroke-dasharray:none" /><path
       class="cls-8"
       d="m -115.54924,39.23155 v 0 64.79705 0 c 17.37073,0 31.373667,-14.460362 31.373667,-32.398527 0,-17.938165 -14.002937,-32.398523 -31.373667,-32.398523 z"
       id="path39"
       style="isolation:isolate;fill:url(#linearGradient42);fill-opacity:1" /><path
       class="cls-2"
       d="m -115.03648,53.291333 h -0.70107 v 36.862721 h 0.70107 c 9.63969,0 17.526711,-8.335791 17.526711,-18.523981 0,-10.18819 -7.887021,-18.523981 -17.526711,-18.523981 v 0 z"
       id="path40"
       style="isolation:isolate;fill:#1ed3e8;fill-opacity:1" /></g></svg>
