<?xml version="1.0" encoding="UTF-8" standalone="no"?>
<svg
   xml:space="preserve"
   viewBox="0 0 128 128"
   version="1.1"
   id="svg2"
   sodipodi:docname="github-icon.svg"
   inkscape:version="1.4.2 (f4327f4, 2025-05-13)"
   xmlns:inkscape="http://www.inkscape.org/namespaces/inkscape"
   xmlns:sodipodi="http://sodipodi.sourceforge.net/DTD/sodipodi-0.dtd"
   xmlns:xlink="http://www.w3.org/1999/xlink"
   xmlns="http://www.w3.org/2000/svg"
   xmlns:svg="http://www.w3.org/2000/svg"><defs
     id="defs2"><style
       id="style1">.cls-1{fill:#0a66c2;}.cls-1,.cls-2{fill-rule:evenodd;}.cls-2{fill:#fff;}</style><style
       id="style1-4">.cls-1{fill:#1769ff;}.cls-1,.cls-2{fill-rule:evenodd;}.cls-2{fill:#fff;}</style><style
       id="style1-0">
      .cls-1 {
        fill: url(#Gradiente_sem_nome_86);
      }

      .cls-1, .cls-2, .cls-3, .cls-4, .cls-5, .cls-6, .cls-7, .cls-8, .cls-9 {
        stroke-width: 0px;
      }

      .cls-10, .cls-3, .cls-6, .cls-9 {
        isolation: isolate;
      }

      .cls-2 {
        fill: url(#Gradiente_sem_nome_66);
      }

      .cls-3 {
        fill: url(#Gradiente_sem_nome_8);
        mix-blend-mode: overlay;
        opacity: .6;
      }

      .cls-4 {
        fill: #040009;
      }

      .cls-4, .cls-6, .cls-9 {
        mix-blend-mode: multiply;
      }

      .cls-5 {
        fill: url(#Gradiente_sem_nome_72);
      }

      .cls-6 {
        fill: url(#Gradiente_sem_nome_62);
      }

      .cls-7 {
        fill: #362f8d;
      }

      .cls-8 {
        fill: url(#Gradiente_sem_nome_51);
      }

      .cls-9 {
        fill: url(#Gradiente_sem_nome_3);
      }
    </style><linearGradient
       id="Gradiente_sem_nome_86"
       data-name="Gradiente sem nome 86"
       x1="10.7"
       y1="30.3"
       x2="52.5"
       y2="30.3"
       gradientTransform="translate(0 59.9) scale(1 -1)"
       gradientUnits="userSpaceOnUse"><stop
         offset="0"
         stop-color="#2c2f60"
         id="stop1" /><stop
         offset=".2"
         stop-color="#0574a9"
         id="stop2" /><stop
         offset=".4"
         stop-color="#12b1e2"
         id="stop3" /><stop
         offset=".6"
         stop-color="#14ebff"
         id="stop4" /><stop
         offset=".8"
         stop-color="#14ebff"
         id="stop5" /><stop
         offset="1"
         stop-color="#aee6f5"
         id="stop6" /></linearGradient><linearGradient
       id="Gradiente_sem_nome_62"
       data-name="Gradiente sem nome 62"
       x1="15"
       y1="30.4"
       x2="45.2"
       y2="30.4"
       gradientTransform="matrix(1,0,0,-1,0,59.9)"
       gradientUnits="userSpaceOnUse"><stop
         offset=".2"
         stop-color="#485868"
         id="stop7" /><stop
         offset="1"
         stop-color="#fff"
         stop-opacity="0"
         id="stop8" /></linearGradient><linearGradient
       id="Gradiente_sem_nome_3"
       data-name="Gradiente sem nome 3"
       x1="12.3"
       y1="30.3"
       x2="49.4"
       y2="30.3"
       gradientTransform="matrix(1,0,0,-1,0,59.9)"
       gradientUnits="userSpaceOnUse"><stop
         offset="0"
         stop-color="#485868"
         id="stop9" /><stop
         offset="1"
         stop-color="#fff"
         stop-opacity="0"
         id="stop10" /></linearGradient><linearGradient
       id="Gradiente_sem_nome_72"
       data-name="Gradiente sem nome 72"
       x1=".6"
       y1="30.3"
       x2="25.8"
       y2="30.3"
       gradientTransform="matrix(1,0,0,-1,0,59.9)"
       gradientUnits="userSpaceOnUse"><stop
         offset="0"
         stop-color="#e11dde"
         id="stop11" /><stop
         offset=".1"
         stop-color="#e95c9f"
         id="stop12" /><stop
         offset=".3"
         stop-color="#f29d5e"
         id="stop13" /><stop
         offset=".5"
         stop-color="#f9cd2f"
         id="stop14" /><stop
         offset=".6"
         stop-color="#fdea11"
         id="stop15" /><stop
         offset=".7"
         stop-color="#fff607"
         id="stop16" /></linearGradient><linearGradient
       id="Gradiente_sem_nome_51"
       data-name="Gradiente sem nome 51"
       x1="-5.9"
       y1="30.4"
       x2="33.8"
       y2="30.4"
       gradientTransform="matrix(1,0,0,-1,0,59.9)"
       gradientUnits="userSpaceOnUse"><stop
         offset="0"
         stop-color="#e11dde"
         id="stop17" /><stop
         offset=".2"
         stop-color="#e332c8"
         id="stop18" /><stop
         offset=".4"
         stop-color="#eb6a92"
         id="stop19" /><stop
         offset=".6"
         stop-color="#f6c23b"
         id="stop20" /><stop
         offset=".9"
         stop-color="#fef807"
         id="stop21" /></linearGradient><linearGradient
       id="Gradiente_sem_nome_66"
       data-name="Gradiente sem nome 66"
       x1="3"
       y1="30.4"
       x2="18.1"
       y2="30.4"
       gradientTransform="matrix(1,0,0,-1,0,59.9)"
       gradientUnits="userSpaceOnUse"><stop
         offset="0"
         stop-color="#e11dde"
         id="stop22" /><stop
         offset="0"
         stop-color="#e332c8"
         id="stop23" /><stop
         offset=".2"
         stop-color="#eb6a92"
         id="stop24" /><stop
         offset=".4"
         stop-color="#f6c23b"
         id="stop25" /><stop
         offset=".7"
         stop-color="#fef807"
         id="stop26" /></linearGradient><linearGradient
       id="Gradiente_sem_nome_8"
       data-name="Gradiente sem nome 8"
       x1="29.6"
       y1="30.3"
       x2="11.3"
       y2="30.3"
       gradientTransform="matrix(1,0,0,-1,0,59.9)"
       gradientUnits="userSpaceOnUse"><stop
         offset="0"
         stop-color="#fff"
         id="stop27" /><stop
         offset="0"
         stop-color="#000"
         id="stop28" /><stop
         offset=".2"
         stop-color="#000"
         stop-opacity=".7"
         id="stop29" /><stop
         offset=".4"
         stop-color="#000"
         stop-opacity=".4"
         id="stop30" /><stop
         offset=".6"
         stop-color="#000"
         stop-opacity=".2"
         id="stop31" /><stop
         offset=".8"
         stop-color="#000"
         stop-opacity=".1"
         id="stop32" /><stop
         offset=".9"
         stop-color="#000"
         stop-opacity="0"
         id="stop33" /><stop
         offset="1"
         stop-color="#fff"
         stop-opacity="0"
         id="stop34" /></linearGradient><linearGradient
       inkscape:collect="always"
       xlink:href="#Gradiente_sem_nome_86"
       id="linearGradient3"
       gradientUnits="userSpaceOnUse"
       gradientTransform="matrix(1,0,0,-1,0,59.9)"
       x1="10.7"
       y1="30.3"
       x2="52.5"
       y2="30.3" /></defs><sodipodi:namedview
     id="namedview2"
     pagecolor="#ffffff"
     bordercolor="#000000"
     borderopacity="0.25"
     inkscape:showpageshadow="2"
     inkscape:pageopacity="0.0"
     inkscape:pagecheckerboard="0"
     inkscape:deskcolor="#d1d1d1"
     showgrid="false"
     inkscape:zoom="3.0585938"
     inkscape:cx="52.965517"
     inkscape:cy="72.745849"
     inkscape:window-width="1920"
     inkscape:window-height="1001"
     inkscape:window-x="-9"
     inkscape:window-y="-9"
     inkscape:window-maximized="1"
     inkscape:current-layer="Camada_1" /><g
     id="Camada_1"
     data-name="Camada 1"
     style="isolation:isolate"
     transform="matrix(2.0898255,0,0,2.0898255,1.6398474,0.17452177)"><g
       id="g5"
       transform="translate(-0.25910979,0.14086982)"><g
         id="g3"
         transform="matrix(0.49124058,0,0,0.49124058,-0.08282644,0.21836523)"
         style="fill:#362f8d;fill-opacity:1"><path
           class="cls-1"
           d="m 25.2,0 h 72.48 a 25.27,25.27 0 0 1 25.2,25.2 v 72.48 a 25.27,25.27 0 0 1 -25.2,25.2 H 25.2 A 25.27,25.27 0 0 1 0,97.68 V 25.2 A 25.27,25.27 0 0 1 25.2,0 Z"
           id="path1-4"
           style="fill:#362f8d;fill-opacity:1" /></g><g
         id="g4"
         transform="translate(0.9570177,0.9570177)"><path
           class="cls-4"
           d="M 30,11.2 H 9.4 V 51.7 H 30 C 41.4,51.7 50.7,42.6 50.7,31.5 50.7,20.4 41.4,11.3 30,11.3 Z m 0,30.2 c -5.7,0 -10.2,-4.5 -10.2,-10 0,-5.5 4.6,-10 10.2,-10 5.6,0 10.2,4.5 10.2,10 0,5.5 -4.6,10 -10.2,10 z"
           id="path34" /><path
           class="cls-1"
           d="M 29.5,9.3 H 9.4 V 49.8 H 29.6 C 40.8,49.8 49.9,40.7 49.9,29.5 49.9,18.3 40.8,9.3 29.6,9.3 Z m 0,30.2 c -5.5,0 -10,-4.5 -10,-10 0,-5.5 4.5,-10 10,-10 5.5,0 10,4.5 10,10 0,5.5 -4.5,10 -10,10 z"
           id="path35"
           style="fill:url(#linearGradient3)" /><path
           class="cls-6"
           d="M 29.5,11.8 H 11.9 v 35.4 h 17.6 c 9.8,0 17.7,-7.9 17.7,-17.7 0,-9.8 -7.9,-17.7 -17.7,-17.7 z m 0,27.7 c -5.5,0 -10,-4.5 -10,-10 0,-5.5 4.5,-10 10,-10 5.5,0 10,4.5 10,10 0,5.5 -4.5,10 -10,10 z"
           id="path36"
           style="fill:url(#Gradiente_sem_nome_62)" /><path
           class="cls-9"
           d="m 29.2,39.5 c -6,-0.4 -10.4,-4.2 -10.4,-9.7 0,-5.5 3.4,-9.7 10.4,-10.3 h 0.6 C 25.8,13.4 18.1,9.2 9.3,9.2 v 0 40.5 0 c 8.8,0 16.4,-4.1 20.5,-10.3 -0.2,0 -0.4,0 -0.6,0 z"
           id="path37"
           style="fill:url(#Gradiente_sem_nome_3)" /><path
           class="cls-5"
           d="m 9.3,9.3 v 0 40.5 0 c 11.2,0 20.2,-9.1 20.2,-20.3 0,-11.2 -9,-20.2 -20.2,-20.2 z"
           id="path38"
           style="fill:url(#Gradiente_sem_nome_72)" /><path
           class="cls-8"
           d="m 9.3,11.8 v 0 35.4 0 C 19.1,47.2 27,39.3 27,29.5 27,19.7 19.1,11.8 9.3,11.8 Z"
           id="path39"
           style="fill:url(#Gradiente_sem_nome_51)" /><path
           class="cls-2"
           d="M 9.7,19.6 H 9.3 v 19.9 h 0.4 c 5.5,0 10,-4.5 10,-10 0,-5.5 -4.5,-10 -10,-10 v 0 z"
           id="path40"
           style="fill:url(#Gradiente_sem_nome_66)" /><path
           class="cls-3"
           d="m 9.3,9.3 v 0 40.5 0 C 20.5,49.8 29.6,40.7 29.6,29.5 29.6,18.3 20.5,9.3 9.3,9.3 Z"
           id="path41"
           style="fill:url(#Gradiente_sem_nome_8)" /></g></g></g></svg>
