<?xml version="1.0" encoding="UTF-8" standalone="no"?>
<svg
   viewBox="0 0 128 128"
   version="1.1"
   id="svg15"
   sodipodi:docname="react-original.svg"
   inkscape:version="1.4.2 (f4327f4, 2025-05-13)"
   xmlns:inkscape="http://www.inkscape.org/namespaces/inkscape"
   xmlns:sodipodi="http://sodipodi.sourceforge.net/DTD/sodipodi-0.dtd"
   xmlns="http://www.w3.org/2000/svg"
   xmlns:svg="http://www.w3.org/2000/svg">
  <sodipodi:namedview
     id="namedview15"
     pagecolor="#ffffff"
     bordercolor="#000000"
     borderopacity="0.25"
     inkscape:showpageshadow="2"
     inkscape:pageopacity="0.0"
     inkscape:pagecheckerboard="0"
     inkscape:deskcolor="#d1d1d1"
     inkscape:zoom="3.0585938"
     inkscape:cx="114.2682"
     inkscape:cy="28.607918"
     inkscape:window-width="1920"
     inkscape:window-height="1001"
     inkscape:window-x="-9"
     inkscape:window-y="-9"
     inkscape:window-maximized="1"
     inkscape:current-layer="svg15" />
  <defs
     id="defs15">
    <linearGradient
       id="a"
       x1="34.513"
       x2="27.157"
       y1="15.535"
       y2="30.448"
       gradientTransform="translate(-129.242 -73.715) scale(6.18523)"
       gradientUnits="userSpaceOnUse">
      <stop
         stop-color="#3F873F"
         id="stop3" />
      <stop
         offset=".33"
         stop-color="#3F8B3D"
         id="stop4" />
      <stop
         offset=".637"
         stop-color="#3E9638"
         id="stop5" />
      <stop
         offset=".934"
         stop-color="#3DA92E"
         id="stop6" />
      <stop
         offset="1"
         stop-color="#3DAE2B"
         id="stop7" />
    </linearGradient>
    <linearGradient
       id="b"
       x1="30.009"
       x2="50.533"
       y1="23.359"
       y2="8.288"
       gradientTransform="translate(-129.242 -73.715) scale(6.18523)"
       gradientUnits="userSpaceOnUse">
      <stop
         offset=".138"
         stop-color="#3F873F"
         id="stop8" />
      <stop
         offset=".402"
         stop-color="#52A044"
         id="stop9" />
      <stop
         offset=".713"
         stop-color="#64B749"
         id="stop10" />
      <stop
         offset=".908"
         stop-color="#6ABF4B"
         id="stop11" />
    </linearGradient>
    <linearGradient
       id="c"
       x1="21.917"
       x2="40.555"
       y1="22.261"
       y2="22.261"
       gradientTransform="translate(-129.242 -73.715) scale(6.18523)"
       gradientUnits="userSpaceOnUse">
      <stop
         offset=".092"
         stop-color="#6ABF4B"
         id="stop12" />
      <stop
         offset=".287"
         stop-color="#64B749"
         id="stop13" />
      <stop
         offset=".598"
         stop-color="#52A044"
         id="stop14" />
      <stop
         offset=".862"
         stop-color="#3F873F"
         id="stop15" />
    </linearGradient>
  </defs>
  <path
     fill="#010101"
     d="M 38.644128,107.91819 C 33.842975,104.13855 28.724011,100.51783 25.216786,95.42157 17.850478,86.432175 12.175356,76.012652 8.3049222,65.071017 5.9554218,57.954414 5.1609047,50.32705 2.1303895,43.482852 -1.0249783,38.511446 2.6752013,33.086029 8.1119678,31.508345 10.529571,31.042986 14.797262,28.750236 9.6556016,30.396021 5.0474022,33.778394 4.6047427,27.320105 9.3264436,26.911497 c 3.2234704,-0.43131 4.4152464,-3.064566 3.3142724,-5.448118 -3.461825,-2.258698 8.39918,-4.744402 2.428951,-8.115425 -6.2199329,-6.7079939 8.694288,-8.0019217 5.016809,-0.374557 -0.873969,5.856725 10.419524,-1.078274 7.797617,5.686472 2.667308,3.24617 9.988218,0.737765 9.795264,5.300564 3.881784,0.272406 5.221113,3.529926 8.853191,3.779631 3.779631,1.702537 10.623828,3.053216 11.906406,7.309558 -3.745581,2.962413 -12.428518,-6.129132 -12.837126,2.088444 1.135024,12.133411 0.839918,24.630029 5.277863,36.184577 2.099795,6.99175 7.184704,12.496619 11.781554,17.944737 4.403897,5.334615 10.351425,9.09155 16.435155,12.25826 5.323264,2.5084 11.066489,4.17689 16.877813,5.22111 2.3495,-1.80469 6.515047,-8.48998 10.181167,-5.67512 0.18161,3.17807 -7.286855,6.62855 -0.35186,6.28803 4.07474,-1.22582 6.90095,3.14403 10.26063,-0.80587 3.08727,3.66614 12.84848,-2.33815 10.64653,5.14166 -2.97377,1.9182 -7.30956,0.76048 -10.29468,3.40509 -4.91465,-2.45166 -8.81914,2.19059 -14.2559,1.61173 -6.038334,1.07827 -12.178815,1.52093 -18.307947,1.52093 -10.044966,-0.79451 -20.305589,-1.12367 -29.851144,-4.61955 -5.380017,-1.56633 -10.63518,-4.6309 -15.356881,-7.69546 z m 8.478632,3.67748 c 5.255163,2.27004 10.396824,4.66494 16.151398,5.39136 9.136949,1.27123 18.580352,3.22348 27.751349,1.44148 -4.15419,-1.87278 -8.444582,0.72642 -12.576071,-1.33933 -4.960057,1.06692 -10.283321,-0.2724 -15.322832,-0.93072 -5.731873,-2.5538 -11.917755,-4.31309 -17.286421,-7.62737 -6.707994,-2.45165 3.473174,3.14403 5.277864,3.59803 4.18824,2.38356 -4.6082,-1.22582 -5.856726,-2.21329 -3.507226,-1.97494 -3.961236,-1.55499 -0.351858,0.44266 0.726415,0.41995 1.452831,0.87397 2.213297,1.23718 z m -9.999564,-7.07121 c 5.096259,1.88414 -0.0227,-3.58667 -2.349501,-3.26886 -1.032873,-1.793343 -3.949889,-2.928368 -1.895491,-3.893138 -3.700183,1.282577 -3.881787,-4.880606 -5.618374,-4.006637 -3.915834,-1.237176 -1.520932,-5.618372 -6.185883,-8.30838 -0.419959,-2.83756 -4.630899,-5.289213 -5.970229,-9.568255 -0.590212,-2.190597 -4.755751,-8.467283 -2.201946,-2.621906 2.179246,5.62972 6.004279,10.453574 9.193697,15.266077 2.474353,4.5855 5.402716,9.375303 9.897413,12.235569 1.520936,1.47552 2.985117,3.71153 5.130314,4.16553 z M 22.447326,88.418469 c 0.181604,-0.771817 0.930721,1.657136 0,0 z m 20.77095,18.364691 c 1.135025,-0.49941 -1.623084,-0.63561 0,0 z m 2.76946,1.01017 c -0.283756,-1.39608 -1.259877,0.78317 0,0 z m 3.461825,1.44149 c 1.645785,-1.56634 -2.542455,-0.98747 0,0 z m 5.924827,3.30291 c 1.010172,-1.47553 -3.200769,-0.55616 0,0 z m -11.384295,-7.93382 c 2.553805,-1.65714 -3.302921,-0.0227 0,0 z m 2.599205,1.29393 c -0.07945,-0.87397 -0.930719,0.38591 0,0 z m 12.97333,8.09273 c 2.088444,1.31663 12.178814,2.88296 5.856728,0.54481 -1.055575,0.22701 -11.724805,-3.01917 -5.856728,-0.54481 z M 38.961935,97.952674 c -0.204304,-0.873969 -3.234819,-0.964771 0,0 z m 6.03833,3.518576 c 1.577684,-1.08962 -3.25752,-0.83992 0,0 z m 5.08491,3.12132 c 2.247348,-0.85127 -3.66613,-0.85127 0,0 z M 36.498932,95.274016 c 2.451653,1.872791 9.874712,0.238356 3.745581,-1.123674 -2.78081,-1.486882 -9.068849,-2.497053 -4.789803,0.896669 z m 17.025366,10.396814 c 1.021523,-1.73659 -4.279042,-0.99881 0,0 z m -5.175712,-4.12013 c 5.981579,1.69119 -5.028157,-3.79098 -1.475531,-0.62426 l 0.794517,0.3632 z m 10.374124,5.99292 c 5.663772,0.0568 -5.118961,-0.77181 0,0 z M 34.319685,91.993796 c -0.215655,-1.055573 -1.39608,0.09081 0,0 z m 33.982633,20.929844 c 0.158904,-1.90684 -1.838739,1.41878 0,0 z M 43.990093,97.918623 c -0.340507,-0.998821 -1.770638,-0.0454 0,0 z m -9.125596,-6.583142 c 3.246169,-0.192953 -4.46065,-1.43013 0,0 z M 24.036361,84.34373 c -0.408609,-1.566334 -3.541277,-2.80351 0,0 z m 28.409664,18.02418 c -0.590213,-0.68101 -0.283756,0.14756 0,0 z m 17.683683,10.85084 c -0.05675,-1.03288 -0.964771,0.39725 0,0 z M 50.879691,100.75618 c 0.317807,-1.339325 -2.769459,-0.4086 0,0 z M 37.713408,92.402404 c 2.417602,-0.261055 -3.881784,-1.634434 0,0 z M 59.993937,106.2497 c 3.768281,-1.49823 -3.677479,-0.72641 0,0 z M 48.405338,98.383983 c 4.347143,0.556163 -5.175711,-2.962413 -0.95342,-0.317806 z m 15.107175,9.295847 c 4.06339,-2.42895 2.724061,5.68647 6.8896,0.68101 4.108789,-2.99647 -3.552626,3.71153 1.509582,0.53346 3.666129,-2.45165 9.068846,1.15773 12.48527,2.33816 2.451651,-0.12486 4.846553,2.12249 7.366307,0.76046 4.846555,-1.30527 -9.488803,-1.94089 -5.731873,-4.25634 -4.437945,1.29393 -7.718166,-1.54364 -9.897412,-4.38119 -4.982758,-1.14638 -10.737334,-3.688829 -13.223037,-8.104074 -1.010172,-1.657135 1.464181,0.238355 -0.873969,-2.474353 -2.996464,-2.667308 -4.494697,-5.697824 -6.50369,-8.943994 -2.406251,-1.282577 -2.690008,-5.062209 -2.928362,-0.124852 0.0227,-3.109967 -2.905663,-5.209763 -3.620729,-4.335794 -0.01135,-2.996464 3.132667,-1.498232 0.93072,-3.711529 -0.47671,-3.109967 -2.031693,-6.344787 -2.497053,-9.852012 -0.726416,-1.691185 -0.10215,-5.311913 -2.485704,-1.486881 -0.862619,4.052036 -0.283755,-4.971407 1.066923,-1.997643 1.770638,-3.030515 -0.635613,-2.678657 -0.737765,-2.258699 1.157724,-2.565155 0.726415,-6.197233 -0.306457,-4.812503 0.612913,-2.712708 0.976121,-9.988215 -0.91937,-8.694287 1.146375,-2.837561 2.179247,-12.984679 -2.80351,-9.114246 -2.020343,0.03405 -5.504868,0.726415 -7.162004,1.554984 5.175711,2.84891 -0.522111,1.032872 -2.633261,0.578862 -0.272405,2.644607 -2.36085,1.498232 -4.971406,1.520933 4.16554,0.510761 -2.031694,4.256341 -4.415245,2.80351 -3.109967,1.486882 2.678657,5.187061 0.05675,6.333436 0.317807,1.725238 -4.755752,-0.624264 -4.358493,3.359672 -3.007814,-1.271228 -0.408609,4.721702 1.089622,2.701358 5.118961,1.38473 3.609378,4.551448 3.734231,7.547913 -0.839918,1.747937 -4.120138,-4.108788 -0.726415,-3.836382 -2.678658,-4.347145 -2.962414,-1.566335 -5.175712,0.442659 -0.510761,0.147553 5.663772,2.871612 1.781989,4.22229 3.416423,0.533462 3.518576,3.518575 4.21094,5.402715 2.054394,2.133846 1.634435,-2.360851 4.086088,0.204305 -1.554983,-2.29275 -8.228927,-6.446937 -2.860261,-5.118959 -0.03405,-2.3041 -0.976121,-4.16554 0.681014,-4.120138 1.634435,-2.951065 -1.713887,7.286855 1.963592,3.529925 1.021523,-0.44266 1.271228,-2.951063 3.098617,0.238356 2.655957,2.610555 0.964771,4.506045 -2.79216,2.111143 0.669664,2.281399 5.016808,3.087267 4.19959,6.651243 0.862619,3.132668 2.077099,1.974943 3.132671,1.793339 0.828568,3.041865 1.293928,0.805868 1.339329,-0.646964 3.790982,0.817218 2.905662,3.053215 4.086087,4.619549 2.610557,1.180426 -3.73423,-7.990571 0.749117,-2.758109 4.721701,4.256341 1.770638,6.03833 -2.463003,5.357316 2.678657,-0.215655 3.541276,3.620727 6.889598,3.484524 3.053215,1.452831 5.130311,7.037153 -0.136203,4.710353 -1.827389,-1.645786 -8.297028,-3.677481 -3.007815,-0.544812 4.880605,2.258699 8.751038,3.609378 13.461389,6.446939 3.359673,2.406251 4.823854,5.153007 6.095082,5.697817 -2.826211,1.35067 -8.524034,-1.07827 -4.290392,-1.827385 -2.644607,-0.476709 -5.607021,-1.816038 -3.075916,1.475525 2.145195,1.79334 7.616013,1.61174 8.603484,1.80469 -0.828567,1.82739 -2.258698,1.97495 0.03405,2.11115 -2.553805,1.38473 0.817218,1.60038 1.055573,2.38355 z M 58.291401,92.924516 c -1.554984,-1.623085 -1.952242,-4.664951 -0.272406,-2.020344 0.851268,0.340507 2.758109,4.971408 0.272406,2.020344 z m 17.014017,10.805424 c 0.964771,-0.0681 0.0227,0.73777 0,0 z M 55.839748,88.94058 c -0.06811,-2.463004 0.556161,1.895491 0,0 z m -1.691187,-2.2814 c -1.963591,-3.768281 2.463004,1.078273 0,0 z M 33.65002,72.516775 c 1.146375,-0.306456 0.567513,1.963593 0,0 z m 16.310301,8.841841 c 0.703716,-2.644606 0.828568,2.224648 0,0 z M 38.439824,73.345344 c -0.805867,-1.464181 1.702536,1.373379 0,0 z m 9.886063,3.166718 c -1.85009,-4.142839 1.316628,-2.270049 0.408608,0.681014 z M 31.277816,65.150469 c -0.828567,-1.36203 -2.190597,-5.357316 -1.759288,-6.571792 0.397259,1.986293 4.222294,8.546733 1.872791,2.712709 -2.587856,-4.880605 3.09862,1.589034 3.688832,2.80351 0.272406,1.214476 -1.600384,-0.329157 -0.329156,2.508403 -2.315454,-3.234819 -1.36203,1.793339 -3.473179,-1.45283 z M 26.011303,61.51839 c 0.215655,-3.166717 1.203126,2.167898 0,0 z m 2.36085,0.817218 c 1.135025,-2.394902 1.918193,3.325622 0,0 z m -5.697821,-4.415245 c -1.963593,-1.952242 -3.382374,-3.745581 0.0908,-1.214476 1.339328,0.05675 -2.973764,-4.086088 0.317806,-1.316629 3.473175,0.635614 1.713887,5.686473 -0.408608,2.531105 z m 2.996463,-0.07945 c 1.135025,-1.123674 0.601563,1.112325 0,0 z m 1.83874,0.590214 c -1.725237,-3.23482 2.099795,1.362028 0,0 z m -3.654778,-3.495875 c -5.697823,-5.07356 7.162004,2.655956 0.930719,0.94207 z m 16.333005,9.488803 c -2.474354,-1.475532 -0.658315,-10.419524 0.181604,-4.301743 2.3949,-0.771816 -0.136204,3.155368 1.657135,3.121318 -0.272406,2.474352 -1.078273,3.371021 -1.838739,1.180425 z m 6.04968,3.575326 c 0.238355,-2.701357 0.510761,1.838739 0,0 z m -1.055573,-1.044223 c 0.272405,-1.146374 0.03405,1.362029 0,0 z M 24.96708,53.266764 c -3.666128,-5.05086 10.646533,5.118959 2.349501,1.282577 -0.873969,-0.238355 -1.918191,-0.317807 -2.349501,-1.282577 z m 11.645355,6.163181 c -0.351858,-4.256341 0.771816,0.703716 0,0 z m 8.83049,5.675122 c 0.681014,-2.428952 0.05675,1.600384 0,0 z M 25.534593,51.337222 c 2.179247,-0.46536 9.023447,3.825032 2.735409,1.225826 -0.703715,-0.783166 -2.190597,-0.431309 -2.735409,-1.225826 z m 18.693855,9.31855 c 0.227005,-4.358494 1.305279,-2.599206 0.01135,0.624263 z M 27.146327,49.816289 c 0.885319,-1.305278 -2.360851,-5.879427 0.46536,-1.645785 1.225827,0.96477 3.529927,1.623084 1.486882,2.031694 3.22347,2.83756 -0.771816,0.771816 -1.952242,-0.385909 z m 16.162751,9.477454 c 0.612914,-4.960057 0.533462,2.905663 0,0 z M 25.296238,45.24214 c 0.681015,-0.295105 0.363207,0.89667 0,0 z m 4.21094,2.508405 c 1.089624,-2.281399 2.008993,2.531104 0,0 z m 11.883709,6.605841 c 0,-0.873968 0.227005,1.271228 0,0 z m -0.681014,-1.520932 c -1.645785,-4.074738 1.532282,2.156546 0,0 z m -1.010172,-2.667308 c -0.283757,-1.679836 0.94207,2.111146 0,0 z m 1.645785,-2.678657 c -1.135025,-1.997643 1.430131,-8.796439 1.713887,-4.574148 -1.191776,3.28022 -0.340507,5.118959 0.48806,0.715065 1.543634,-3.473174 -0.329157,6.832847 -2.201947,3.859083 z m 1.691186,-10.113068 c 0.499411,-0.601563 0.113503,0.737767 0,0 z M 40.210461,93.12882 c -0.669664,-0.590212 0.07945,0.374559 0,0 z m 5.822676,2.951063 c 3.24617,0.839919 3.223469,-0.49941 0.295106,-0.896669 -1.577683,-1.464181 -6.549091,-3.019164 -2.099795,-0.181603 0.306457,0.737765 1.237176,0.715064 1.804689,1.078272 z M 34.523989,88.42982 c 1.781989,1.339328 6.730695,3.768281 2.542455,0.51076 1.40743,-1.634437 -2.701358,-2.508405 -1.339328,-3.609379 -3.473179,-2.122495 -2.735409,-1.929541 -0.306457,-1.86144 -4.165544,-1.861439 0.601562,-1.725237 0.374558,-2.678657 -1.611735,-0.317807 -7.979225,-2.837562 -4.233645,0.204305 -3.813681,-1.940892 -0.908019,0.726415 -2.065744,0.442658 -3.904484,-1.066922 3.473178,2.973764 -0.612913,1.963593 2.235998,1.770638 6.015632,4.540097 0.94207,1.872791 -0.646964,0.96477 3.643431,2.428952 4.699004,3.155369 z m 6.095082,3.507225 c 7.411709,2.383551 -3.632079,-2.928363 0,0 z m 31.213173,18.898145 c 0.09081,-1.47553 -1.021522,1.25989 0,0 z m 3.200769,1.35068 c 1.713887,-1.65713 0.0681,2.64461 2.837561,-0.4086 0.03405,-2.17925 -0.07945,-3.47318 -3.178069,-0.81722 -0.851268,0.47671 -1.237176,2.4857 0.340508,1.22582 z M 24.127163,80.212242 c -0.533462,-2.065745 -3.68883,-2.054395 0,0 z m 3.416423,2.247348 c -1.271228,-2.111146 -4.540097,-1.906841 0,0 z m 19.488372,11.747504 c 1.906842,1.691185 8.739689,1.237176 2.3041,0.204304 -0.94207,-1.407431 -6.03833,-1.066924 -2.3041,-0.204304 z M 73.818536,110.7444 c 2.917013,-2.45166 -2.83756,1.10097 0,0 z m 6.083732,4.18823 c 0.0227,-0.78316 -1.259878,0.34051 0,0 z m 0.01135,-1.10097 c 3.24617,-3.43912 -3.144017,0.20431 0,0 z M 15.693931,73.16374 C 12.935822,69.225205 13.980044,67.454567 11.312738,64.231099 10.801977,61.768095 6.7385886,56.183776 9.2129421,62.097253 11.471641,65.559077 12.141305,70.916392 15.693931,73.16374 Z m 63.198164,39.5783 c 5.970229,-3.85909 -2.440302,-1.67984 0,0 z m 4.551448,1.78198 c 2.996465,-2.56514 -1.88414,-0.53345 0,0 z M 23.105641,75.853747 c 0.862618,-1.271227 -2.201948,-0.158903 0,0 z M 82.501473,113.2982 c 2.894313,-1.86144 -0.669664,-1.57769 -0.522111,0.17026 z M 43.252328,88.566022 c -0.10215,-1.259879 -1.532284,0.102149 0,0 z m 2.428952,1.39608 c -0.783167,-1.566334 -1.191777,0.238355 0,0 z m 41.462443,24.595978 c 3.71153,-2.67867 -2.247348,-0.51076 -0.771816,0.51075 z m -1.430131,-0.68102 c 3.030516,-2.5311 -3.178068,1.12368 0,0 z m 7.252807,4.82385 c 2.031693,-1.35067 -2.463003,-0.4313 0,0 z M 24.96708,74.934378 c 2.712709,0.612913 10.850838,6.685293 6.049681,0.419959 -2.463004,-0.726416 -0.987472,-6.742045 -3.495876,-5.675122 1.679837,2.814861 1.38473,4.006636 -2.156546,2.235998 -4.437945,-2.167897 -2.497054,1.066923 -1.623085,1.963592 -1.180425,0.283757 1.577684,1.032872 1.225826,1.055573 z M 12.595315,65.161819 c 0.48806,-2.008993 -4.4833472,-11.066488 -2.3495,-4.540097 0.771816,1.373379 0.692364,3.961234 2.3495,4.540097 z m 22.711841,14.006199 c -1.39608,-1.169074 -0.0681,-0.170253 0,0 z m 3.439124,0.805868 c 0,-2.133845 -3.802331,-0.873969 0,0 z m 29.851144,18.807355 c -0.567511,-1.45283 -2.247348,-0.0227 0,0 z m 1.430131,1.055573 c -0.204304,-0.817217 -0.817218,0.158903 0,0 z m 11.838304,7.445756 c 1.135025,-0.83992 -1.418779,-0.10215 0,0 z M 18.769847,66.739502 c 3.25752,-1.259876 -3.484525,-0.896669 0,0 z m 47.205671,29.737641 c -0.0454,-2.111146 -2.077096,0.522111 0,0 z M 17.48727,63.743039 c 2.088445,-0.703716 -1.940892,-0.465361 0,0 z m 6.061031,2.939711 c -0.03405,-0.692364 -0.635614,0.261056 0,0 z m 74.026297,45.38962 c 2.690012,-0.54481 8.819142,1.37338 9.806612,-0.71507 -3.26887,-0.0795 -11.293494,-2.30409 -11.668053,0.52211 l 0.715066,0.11351 z M 25.477842,67.170811 c 0.05675,-2.133845 -1.657136,-0.07945 0,0 z M 9.5307486,56.104324 c -0.726416,-4.063387 -2.7581093,-0.612913 0,0 z m 3.8023324,0.95342 c 0.0454,-1.305278 -3.4845264,-1.169074 0,0 z m 2.167897,1.066924 c -0.624264,-0.499411 -0.488062,0.646964 0,0 z m 13.688393,8.773737 c 0.646965,-0.590213 -1.532282,-0.431309 0,0 z M 14.059496,55.718416 c -0.374557,-3.075916 -4.4038944,-0.45401 0,0 z M 6.2618784,50.656207 c -0.1135024,-1.41878 -0.7604663,0.533461 0,0 z m 1.1577248,-0.873969 c -0.192954,-1.679836 -0.9988214,0.215655 0,0 z m 6.4128888,3.825033 C 16.5452,52.540348 8.8951346,51.405323 13.276329,53.402966 Z m 85.796499,52.994279 c 1.736589,-1.58903 -2.201946,-0.48806 0,0 z m 10.362779,5.38002 c 0.69235,-2.0544 -1.74795,0.26105 0,0 z M 14.479455,50.247598 c 0.295107,-1.986292 -2.145196,0.397259 0,0 z M 5.3652091,44.141167 C 4.8771486,41.337657 4.94525,36.4003 9.6329006,38.068786 c -6.2539842,1.248527 4.3357934,7.774917 2.9964654,2.621906 2.633256,0.124853 5.14166,-1.554983 3.76828,0.998822 5.187062,-0.567512 8.773739,-5.062208 13.779197,-4.437945 3.904487,-0.522111 8.160829,-0.90802 12.360419,-2.474353 3.450474,-0.249706 6.776095,-3.972586 4.891955,-6.174533 -4.710351,-0.397259 -9.647708,0.192954 -14.846123,1.225827 -5.765924,1.203125 -11.009736,3.473174 -16.832411,4.460646 -5.675122,0.760466 1.135024,2.099795 -0.488061,2.3949 -2.962414,1.021523 3.529926,1.725237 -0.385908,2.803511 C 12.459112,39.022206 9.9393566,38.193639 10.97223,35.651184 5.5354628,36.3549 0.75700997,38.613598 5.0587525,44.141167 Z M 18.463391,37.467223 c 1.271227,-4.699001 6.821497,3.859083 2.088445,0.624264 -0.567513,-0.431309 -1.498232,-0.771817 -2.088445,-0.624264 z m 0.249705,-2.281399 c 1.83874,-1.362029 0.976122,0.771818 0,0 z m 2.33815,0.0454 c 0.170254,-2.156547 5.345965,1.146375 0.851268,0.771817 z m 3.189419,-1.293927 c 1.169075,-1.36203 0.340508,1.214476 0,0 z m 0.817217,-0.544812 c 1.940892,-2.33815 10.998391,-1.486882 4.369844,-0.227006 -1.770637,-1.339328 -3.132667,0.794518 -4.369844,0.227006 z M 36.88484,31.576446 c -0.295106,-6.378837 5.879426,2.258698 0,0 z m 3.359673,-0.0227 c 1.225826,-3.212118 4.767103,-1.293927 0.567512,-0.646964 0.09081,0.340507 -0.124853,1.657136 -0.567512,0.646964 z M 13.162828,48.601813 c 3.666127,-2.247348 -3.8931354,-1.952242 0,0 z m 2.712707,0.749116 c 1.282578,-1.362029 -2.79216,-0.556162 0,0 z M 7.8849634,43.687157 c 2.0997952,-1.611734 -2.4743533,-0.612913 0,0 z M 116.10954,111.39136 c 0.0568,-1.8728 -1.60037,0.83992 0,0 z m -10.99838,-7.50251 c 0.31781,-2.15655 -1.40744,0.18161 0,0 z m 14.0289,8.22893 c 2.92837,0.0114 8.87589,-0.90802 2.49706,-0.90802 -0.99882,0.14754 -5.82268,0.12484 -2.49706,0.90802 z M 18.259086,48.0343 c 2.372202,-0.158903 3.711531,-2.610556 -0.46536,-2.474352 -6.458289,-0.669665 5.697823,2.213297 -0.828567,1.384729 -0.873969,0.578862 1.237177,1.248527 1.293927,1.089623 z m 2.088445,1.055573 c -0.249705,-1.520932 -0.737765,0.805868 0,0 z m 2.474354,-6.605842 c 1.021521,-1.271227 -1.430131,-0.340507 0,0 z m -7.88842,-13.166283 c 4.233641,-1.441481 10.010916,-3.053216 12.008558,0.703715 -2.031694,-2.440302 -0.817218,-4.857904 1.100974,-1.271227 2.712708,3.620728 4.074738,-1.645785 2.304099,-2.860261 2.008994,2.497053 4.301746,3.677479 1.350679,0.158903 3.212123,-3.859083 -6.424238,0.510761 -8.614835,0.465359 -1.044222,0.465361 -10.873534,2.497055 -8.149475,2.803511 z m 2.485704,-4.744401 c 2.417601,-1.81604 8.342428,1.089622 4.540097,-1.80469 -0.374558,-0.340507 -8.342429,2.190597 -4.540097,1.80469 z m 8.796438,0.363207 c 2.826212,0.06811 -1.214476,-3.790982 2.145197,-2.043044 -0.556162,-1.804689 -3.915835,-2.145196 -5.56162,-2.860262 -0.93072,1.645785 1.884141,4.926006 3.416423,4.903306 z m -7.252805,-7.990573 c 0.976121,-1.316628 -1.713887,0.681015 0,0 z m 3.586677,0.862619 c 4.551448,-0.601563 -1.157725,-1.952241 -0.91937,-0.0454 z m -6.707994,-5.243813 c -3.200769,-4.1882395 6.026979,0.703715 2.769459,-3.6774786 -2.735409,-2.1792468 -5.368665,2.4516526 -2.769459,3.6774786 z m 41.099236,22.132977 c 1.464182,-2.599206 -6.06103,-3.507225 -0.987471,-0.91937 0.476711,0.158904 0.363208,1.100974 0.987471,0.91937 z"
     id="path1"
     style="fill:#ffffff;stroke-width:1.13503" />
</svg>
