<?xml version="1.0" encoding="UTF-8" standalone="no"?>
<svg
   viewBox="0 0 128 128"
   version="1.1"
   id="svg15"
   sodipodi:docname="react-original.svg"
   inkscape:version="1.4.2 (f4327f4, 2025-05-13)"
   xmlns:inkscape="http://www.inkscape.org/namespaces/inkscape"
   xmlns:sodipodi="http://sodipodi.sourceforge.net/DTD/sodipodi-0.dtd"
   xmlns="http://www.w3.org/2000/svg"
   xmlns:svg="http://www.w3.org/2000/svg">
  <sodipodi:namedview
     id="namedview15"
     pagecolor="#ffffff"
     bordercolor="#000000"
     borderopacity="0.25"
     inkscape:showpageshadow="2"
     inkscape:pageopacity="0.0"
     inkscape:pagecheckerboard="0"
     inkscape:deskcolor="#d1d1d1"
     inkscape:zoom="3.0585938"
     inkscape:cx="114.2682"
     inkscape:cy="80.919539"
     inkscape:window-width="1920"
     inkscape:window-height="1001"
     inkscape:window-x="-9"
     inkscape:window-y="-9"
     inkscape:window-maximized="1"
     inkscape:current-layer="svg15" />
  <defs
     id="defs15">
    <linearGradient
       id="a"
       x1="34.513"
       x2="27.157"
       y1="15.535"
       y2="30.448"
       gradientTransform="translate(-129.242 -73.715) scale(6.18523)"
       gradientUnits="userSpaceOnUse">
      <stop
         stop-color="#3F873F"
         id="stop3" />
      <stop
         offset=".33"
         stop-color="#3F8B3D"
         id="stop4" />
      <stop
         offset=".637"
         stop-color="#3E9638"
         id="stop5" />
      <stop
         offset=".934"
         stop-color="#3DA92E"
         id="stop6" />
      <stop
         offset="1"
         stop-color="#3DAE2B"
         id="stop7" />
    </linearGradient>
    <linearGradient
       id="b"
       x1="30.009"
       x2="50.533"
       y1="23.359"
       y2="8.288"
       gradientTransform="translate(-129.242 -73.715) scale(6.18523)"
       gradientUnits="userSpaceOnUse">
      <stop
         offset=".138"
         stop-color="#3F873F"
         id="stop8" />
      <stop
         offset=".402"
         stop-color="#52A044"
         id="stop9" />
      <stop
         offset=".713"
         stop-color="#64B749"
         id="stop10" />
      <stop
         offset=".908"
         stop-color="#6ABF4B"
         id="stop11" />
    </linearGradient>
    <linearGradient
       id="c"
       x1="21.917"
       x2="40.555"
       y1="22.261"
       y2="22.261"
       gradientTransform="translate(-129.242 -73.715) scale(6.18523)"
       gradientUnits="userSpaceOnUse">
      <stop
         offset=".092"
         stop-color="#6ABF4B"
         id="stop12" />
      <stop
         offset=".287"
         stop-color="#64B749"
         id="stop13" />
      <stop
         offset=".598"
         stop-color="#52A044"
         id="stop14" />
      <stop
         offset=".862"
         stop-color="#3F873F"
         id="stop15" />
    </linearGradient>
    <radialGradient
       id="a-0"
       cx="359.38199"
       cy="134.83"
       r="50.57"
       gradientTransform="matrix(1,0,0,-0.435,-297.375,140.218)"
       gradientUnits="userSpaceOnUse">
      <stop
         offset="0"
         id="stop1" />
      <stop
         offset="1"
         stop-opacity="0"
         id="stop2" />
    </radialGradient>
    <radialGradient
       id="b-9"
       cx="201.74899"
       cy="230.895"
       r="53.284"
       gradientTransform="matrix(1.773,0,0,-1.297,-313.84,354.268)"
       gradientUnits="userSpaceOnUse">
      <stop
         offset="0"
         stop-color="#857C63"
         id="stop3-4" />
      <stop
         offset="1"
         stop-color="#221F19"
         id="stop4-8" />
    </radialGradient>
    <linearGradient
       id="c-8"
       x1="378.84399"
       x2="347.98401"
       y1="204.625"
       y2="198.502"
       gradientTransform="matrix(1,0,0,-1,-301.337,279.346)"
       gradientUnits="userSpaceOnUse">
      <stop
         offset="0"
         id="stop5-2" />
      <stop
         offset="1"
         stop-opacity="0"
         id="stop6-4" />
    </linearGradient>
    <linearGradient
       id="d"
       x1="348.04599"
       x2="413.38599"
       y1="240.776"
       y2="166.604"
       gradientTransform="matrix(1,0,0,-1,-297.5,279)"
       gradientUnits="userSpaceOnUse">
      <stop
         offset="0"
         stop-color="#fff"
         id="stop7-5" />
      <stop
         offset="1"
         stop-color="#fff"
         stop-opacity="0"
         id="stop8-5" />
    </linearGradient>
    <radialGradient
       id="e"
       cx="259.173"
       cy="242.80901"
       r="9.7410002"
       gradientTransform="matrix(1.685,0,0,-1.685,-400.899,453.504)"
       gradientUnits="userSpaceOnUse">
      <stop
         offset="0"
         stop-color="#fff"
         id="stop9-1" />
      <stop
         offset="1"
         stop-color="#B9B9B0"
         id="stop10-7" />
    </radialGradient>
    <radialGradient
       id="f"
       cx="274.25201"
       cy="84.307999"
       r="13.387"
       gradientTransform="matrix(0.797,-0.46,-0.537,-0.931,-163.086,262.495)"
       gradientUnits="userSpaceOnUse">
      <stop
         offset="0"
         stop-color="#5B676B"
         id="stop11-1" />
      <stop
         offset="1"
         stop-color="#141718"
         id="stop12-1" />
    </radialGradient>
    <linearGradient
       id="g"
       x1="230.297"
       x2="229.46001"
       y1="47.32"
       y2="25.884001"
       gradientTransform="matrix(0.79863551,-0.60181502,-0.60181502,-0.79863551,-147.55636,232.19053)"
       gradientUnits="userSpaceOnUse">
      <stop
         offset="0"
         stop-color="#fff"
         id="stop13-5" />
      <stop
         offset="1"
         stop-color="#fff"
         stop-opacity="0"
         id="stop14-2" />
    </linearGradient>
    <radialGradient
       id="h"
       cx="238.588"
       cy="244.87199"
       r="9.7410002"
       gradientTransform="matrix(1.978,0,0,-1.978,-412.858,528.573)"
       gradientUnits="userSpaceOnUse">
      <stop
         offset="0"
         stop-color="#fff"
         id="stop15-7" />
      <stop
         offset="1"
         stop-color="#B9B9B0"
         id="stop16" />
    </radialGradient>
    <linearGradient
       id="i"
       x1="1581.422"
       x2="1555.752"
       y1="-398.27399"
       y2="-420.60001"
       gradientTransform="matrix(-0.115,0.39,0.39,0.115,175.179,-456.047)"
       gradientUnits="userSpaceOnUse">
      <stop
         offset="0"
         stop-color="#6E3D09"
         id="stop18" />
      <stop
         offset=".242"
         stop-color="#EA8113"
         id="stop19" />
      <stop
         offset=".621"
         stop-color="#5C3307"
         id="stop20" />
      <stop
         offset="1"
         stop-color="#E07C12"
         id="stop21" />
    </linearGradient>
    <linearGradient
       id="j"
       x1="1691.417"
       x2="1701.71"
       y1="-496.24301"
       y2="-486.71799"
       gradientTransform="matrix(-0.115,0.39,0.39,0.115,178.077,-459.728)"
       gradientUnits="userSpaceOnUse">
      <stop
         offset="0"
         stop-color="#BDBDBD"
         id="stop22" />
      <stop
         offset=".333"
         stop-color="#E2E2E2"
         id="stop23" />
      <stop
         offset=".667"
         stop-color="#A3A3A3"
         id="stop24" />
      <stop
         offset="1"
         stop-color="#ddd"
         id="stop25" />
    </linearGradient>
    <radialGradient
       id="k"
       cx="958.40601"
       cy="-380.26199"
       r="21.002001"
       gradientTransform="matrix(-0.181,0.598,0.613,0.176,183.272,-348.089)"
       gradientUnits="userSpaceOnUse">
      <stop
         offset="0"
         stop-color="#696969"
         id="stop26" />
      <stop
         offset="1"
         id="stop27" />
    </radialGradient>
    <linearGradient
       id="l"
       x1="2046.356"
       x2="2031.16"
       y1="702.98499"
       y2="715.53699"
       gradientTransform="matrix(-0.241,0.249,0.249,0.241,95.193,-501.932)"
       gradientUnits="userSpaceOnUse">
      <stop
         offset="0"
         stop-color="#fff"
         id="stop29" />
      <stop
         offset="1"
         stop-color="#fff"
         stop-opacity="0"
         id="stop30" />
    </linearGradient>
    <linearGradient
       id="m"
       x1="367.72299"
       x2="362.64099"
       y1="202.12801"
       y2="200.90401"
       gradientTransform="matrix(1,0,0,-1,-297.5,279)"
       gradientUnits="userSpaceOnUse">
      <stop
         offset="0"
         id="stop31" />
      <stop
         offset="1"
         stop-opacity="0"
         id="stop32" />
    </linearGradient>
  </defs>
  <g
     id="g32"
     transform="matrix(0.9793348,0,0,0.9793348,1.4848214,1.5570435)">
    <path
       fill="url(#a)"
       d="m 112.6,81.6 c 0,12.1 -22.6,22 -50.6,22 -28,0 -50.6,-9.8 -50.6,-22 0,-12.2 22.6,-22 50.6,-22 28,0 50.6,9.8 50.6,22 z"
       id="path2"
       style="fill:url(#a-0)" />
    <path
       fill="url(#b)"
       stroke="#2e3436"
       stroke-miterlimit="10"
       d="m 26.7,27.6 c 0,0 8,16.4 26.6,16 39.1,-1 45.9,-21.4 46.9,-24.3 1,-2.9 2.5,-2.5 2.8,0.2 12.7,115.6 -88.4,66 -92,46.3 C 31.1,60 26.2,48.7 26.2,48.7 Z"
       id="path4"
       style="fill:url(#b-9)" />
    <path
       fill="url(#c)"
       d="m 41.5,76.4 c 18.7,3.7 28.2,0.3 33.7,-4 -1.5,-1.9 -4,-4 -4,-4 0,0 6.5,1.8 8.8,4.8 2.3,3 0.9,4.8 0.3,8.6 -1.3,-3.3 -3.8,-4.6 -4.2,-5.9 -4.9,6.9 -17.4,6.6 -34.6,0.5 z"
       id="path6"
       style="fill:url(#c-8)" />
    <path
       fill="none"
       stroke="url(#d)"
       stroke-miterlimit="10"
       d="M 100.4,25.9 C 98.8,28.5 96.5,31.5 93,34.5 85.7,40.5 73.5,46 53.4,46.5 41.7,46.8 34.1,41.1 29.5,36.1 l -0.3,12.4 c 0.4,1.2 1.2,3.9 -0.2,7.5 -1.4,4 -6,8 -13.8,11.1 0.7,1.4 1.4,2.9 3.5,4.9 2.8,2.8 6.8,5.8 11.5,8.5 9.4,5.4 21.6,9.7 33,9.9 11.4,0.2 21.8,-3.4 28.9,-13.9 6.5,-9.6 10.2,-25.8 8.3,-50.6 z"
       enable-background="new"
       opacity="0.185"
       id="path8"
       style="stroke:url(#d)" />
    <path
       fill="url(#e)"
       stroke="#888a85"
       stroke-miterlimit="10"
       stroke-width="0.783"
       d="m 47,52.4 c 0,6.2 -5,11.3 -11.3,11.3 -6.3,0 -11.3,-5 -11.3,-11.3 0,-6.3 5,-11.3 11.3,-11.3 6.3,0 11.3,5 11.3,11.3 z"
       id="path10"
       style="fill:url(#e)" />
    <path
       fill="url(#f)"
       stroke="#000000"
       stroke-miterlimit="10"
       d="m 24.6,56.6 c 5.5,7.6 5.5,16.8 0.2,20.7 C 19.4,81.2 10.6,78.2 5.2,70.6 -0.3,63 -0.3,53.8 5,49.9 10.3,46 19.1,49 24.6,56.6 Z"
       id="path12"
       style="fill:url(#f)" />
    <path
       fill="#2e3436"
       stroke="#000000"
       stroke-miterlimit="10"
       stroke-width="1.174"
       d="m 43.8,54 c 0,3 -2.4,5.4 -5.4,5.4 -3,0 -5.4,-2.4 -5.4,-5.4 0,-3 2.4,-5.4 5.4,-5.4 3,0 5.4,2.4 5.4,5.4 z"
       id="path13" />
    <path
       fill="none"
       stroke="url(#g)"
       stroke-miterlimit="10"
       d="M 5.9,52.4 C 4.2,53.7 3.2,56 3.3,59 c 0.1,3 1.3,6.8 3.8,10.1 2.5,3.3 5.7,5.5 8.6,6.4 2.9,0.9 5.3,0.7 7.1,-0.7 1.8,-1.3 2.7,-3.7 2.6,-6.7 -0.1,-3 -1.2,-6.7 -3.7,-10 -2.5,-3.3 -5.6,-5.4 -8.6,-6.4 -2.9,-0.9 -5.4,-0.6 -7.2,0.7 z"
       enable-background="new"
       opacity="0.281"
       id="path14"
       style="stroke:url(#g)" />
    <path
       fill="#ffffff"
       d="m 14.1,57.5 c 0,3.2 -2.2,5.9 -4.9,5.9 -2.7,0 -4.9,-2.6 -4.9,-5.9 0,-3.2 2.2,-5.9 4.9,-5.9 2.7,0 4.9,2.7 4.9,5.9 z m 25.9,-6 c 0,2.1 -1.7,3.8 -3.8,3.8 -2.1,0 -3.8,-1.7 -3.8,-3.8 0,-2.1 1.7,-3.8 3.8,-3.8 2.2,0.1 3.8,1.8 3.8,3.8 z"
       id="path15" />
    <path
       fill="url(#h)"
       stroke="#888a85"
       stroke-miterlimit="10"
       stroke-width="0.667"
       d="m 72.2,53.6 c 0,7.3 -5.9,13.2 -13.2,13.2 -7.3,0 -13.2,-5.9 -13.2,-13.2 0,-7.3 5.9,-13.2 13.2,-13.2 7.3,0 13.2,5.9 13.2,13.2 z"
       id="path16"
       style="fill:url(#h)" />
    <path
       fill="#2e3436"
       stroke="#000000"
       stroke-miterlimit="10"
       d="m 68.5,55.5 c 0,3.5 -2.9,6.4 -6.4,6.4 -3.5,0 -6.4,-2.9 -6.4,-6.4 0,-3.5 2.9,-6.4 6.4,-6.4 3.5,0.1 6.4,2.9 6.4,6.4 z"
       id="path17" />
    <path
       fill="#ffffff"
       d="m 64.1,52.6 c 0,2.4 -2,4.4 -4.4,4.4 -2.4,0 -4.4,-2 -4.4,-4.4 0,-2.4 2,-4.4 4.4,-4.4 2.4,0 4.4,2 4.4,4.4 z"
       id="path18" />
    <g
       transform="matrix(-0.115,-0.39,0.39,-0.115,24.715,29.689)"
       id="g30">
      <linearGradient
         id="linearGradient34"
         x1="1581.422"
         x2="1555.752"
         y1="-398.27399"
         y2="-420.60001"
         gradientTransform="matrix(-0.115,0.39,0.39,0.115,175.179,-456.047)"
         gradientUnits="userSpaceOnUse">
        <stop
           offset="0"
           stop-color="#6E3D09"
           id="stop17" />
        <stop
           offset=".242"
           stop-color="#EA8113"
           id="stop28" />
        <stop
           offset=".621"
           stop-color="#5C3307"
           id="stop33" />
        <stop
           offset="1"
           stop-color="#E07C12"
           id="stop34" />
      </linearGradient>
      <path
         fill="url(#i)"
         stroke="#673907"
         stroke-linecap="round"
         stroke-width="2.461"
         d="m -201.5,132 10.3,9.6 c 23.1,-17.7 47.4,-55.7 47.4,-55.7 5.5,-6.2 -0.3,-10.4 -6,-6.6 0,0 -36,28 -51.7,52.7 z"
         id="path21"
         style="fill:url(#i)" />
      <linearGradient
         id="linearGradient38"
         x1="1691.417"
         x2="1701.71"
         y1="-496.24301"
         y2="-486.71799"
         gradientTransform="matrix(-0.115,0.39,0.39,0.115,178.077,-459.728)"
         gradientUnits="userSpaceOnUse">
        <stop
           offset="0"
           stop-color="#BDBDBD"
           id="stop35" />
        <stop
           offset=".333"
           stop-color="#E2E2E2"
           id="stop36" />
        <stop
           offset=".667"
           stop-color="#A3A3A3"
           id="stop37" />
        <stop
           offset="1"
           stop-color="#ddd"
           id="stop38" />
      </linearGradient>
      <path
         fill="url(#j)"
         stroke="#888a85"
         stroke-linecap="round"
         stroke-width="2.461"
         d="m -221.1,157.6 6.2,5.4 23.5,-20.4 0.8,-2 h 3 c -1.2,-4.3 -8.2,-12.1 -13.3,-12.1 l 0.2,3 -1.9,1.1 z"
         id="path25"
         style="fill:url(#j)" />
      <path
         fill="none"
         stroke="#ffffff"
         stroke-linecap="round"
         stroke-linejoin="round"
         stroke-width="2.461"
         d="m -202.7,145.3 -12.1,14.6"
         id="path26" />
      <radialGradient
         id="radialGradient40"
         cx="958.40601"
         cy="-380.26199"
         r="21.002001"
         gradientTransform="matrix(-0.181,0.598,0.613,0.176,183.272,-348.089)"
         gradientUnits="userSpaceOnUse">
        <stop
           offset="0"
           stop-color="#696969"
           id="stop39" />
        <stop
           offset="1"
           id="stop40" />
      </radialGradient>
      <path
         fill="url(#k)"
         d="m -262.4,185.2 c 28.9,0 50.9,3.4 55.1,-17.6 3.4,-17 -20,-25.1 -31.5,-10 -11.2,14.6 -23.6,27.6 -23.6,27.6 z"
         id="path27"
         style="fill:url(#k)" />
      <path
         fill="#ffffff"
         d="m -209.8,168.2 c 0,4 -3.2,7.2 -7.2,7.2 -4,0 -7.2,-3.2 -7.2,-7.2 0,-4 3.2,-7.2 7.2,-7.2 4,0 7.2,3.2 7.2,7.2 z"
         enable-background="new"
         opacity="0.528"
         id="path28" />
      <path
         fill="#ffffff"
         d="m -191.2,141.1 c 0,2.7 -2.2,4.8 -4.8,4.8 -2.6,0 -4.8,-2.2 -4.8,-4.8 0,-2.7 2.2,-4.8 4.8,-4.8 2.6,-0.1 4.8,2.1 4.8,4.8 z"
         id="path29" />
      <linearGradient
         id="linearGradient42"
         x1="2046.356"
         x2="2031.16"
         y1="702.98499"
         y2="715.53699"
         gradientTransform="matrix(-0.241,0.249,0.249,0.241,95.193,-501.932)"
         gradientUnits="userSpaceOnUse">
        <stop
           offset="0"
           stop-color="#fff"
           id="stop41" />
        <stop
           offset="1"
           stop-color="#fff"
           stop-opacity="0"
           id="stop42" />
      </linearGradient>
      <path
         fill="url(#l)"
         d="m -243.6,180 c 0,0 10.3,0.3 16.9,-3.9 2.3,-1.5 4.2,1.8 1.4,3 -6.1,2.6 -18.3,0.9 -18.3,0.9 z"
         enable-background="new"
         opacity="0.428"
         id="path30"
         style="fill:url(#l)" />
    </g>
    <path
       fill="url(#m)"
       d="m 61.7,81 c 4.1,0.4 7.9,-0.8 9.5,-1.3 0.3,-1.5 1.5,-4.5 5.7,-4.7 l -1.5,-2.6 c 0,0 -5.4,3.7 -11.3,4.8 z"
       id="path32"
       style="fill:url(#m)" />
  </g>
</svg>
