<?xml version="1.0" encoding="UTF-8" standalone="no"?>
<svg
   xml:space="preserve"
   viewBox="0 0 128 128"
   version="1.1"
   id="svg2"
   sodipodi:docname="behance-icon.svg"
   inkscape:version="1.4.2 (f4327f4, 2025-05-13)"
   xmlns:inkscape="http://www.inkscape.org/namespaces/inkscape"
   xmlns:sodipodi="http://sodipodi.sourceforge.net/DTD/sodipodi-0.dtd"
   xmlns="http://www.w3.org/2000/svg"
   xmlns:svg="http://www.w3.org/2000/svg"><defs
     id="defs2"><style
       id="style1">.cls-1{fill:#0a66c2;}.cls-1,.cls-2{fill-rule:evenodd;}.cls-2{fill:#fff;}</style><style
       id="style1-4">.cls-1{fill:#1769ff;}.cls-1,.cls-2{fill-rule:evenodd;}.cls-2{fill:#fff;}</style></defs><sodipodi:namedview
     id="namedview2"
     pagecolor="#ffffff"
     bordercolor="#000000"
     borderopacity="0.25"
     inkscape:showpageshadow="2"
     inkscape:pageopacity="0.0"
     inkscape:pagecheckerboard="0"
     inkscape:deskcolor="#d1d1d1"
     showgrid="false"
     inkscape:zoom="3.0585938"
     inkscape:cx="168.05108"
     inkscape:cy="108.05619"
     inkscape:window-width="1920"
     inkscape:window-height="1001"
     inkscape:window-x="-9"
     inkscape:window-y="-9"
     inkscape:window-maximized="1"
     inkscape:current-layer="svg2" /><style
     type="text/css"
     id="style1-0"><![CDATA[
	.st0{fill:#F4BB2C;}
	.st1{fill:#5C546A;}
]]></style><g
     id="g3"
     transform="matrix(1.023946,0,0,1.023946,5.1362643,1.0877129)"><path
       class="st1"
       d="m 68.72,116.34 c -1.22,2.09 -2.9,3.72 -4.82,4.83 -1.71,1 -3.62,1.57 -5.53,1.69 -1.94,0.12 -3.9,-0.25 -5.69,-1.11 -1.22,-0.6 -2.36,-1.43 -3.37,-2.51 z m 2.69,-20.51 -0.63,2.95 -0.16,2.1 -25.33,3.77 c -0.09,-1.51 -0.33,-3.14 -0.71,-4.83 z m -0.84,9.65 0.02,1.27 0.03,0.44 c 0.07,0.83 0.08,1.67 0.03,2.5 l -0.38,1.83 -23.52,3.5 -0.41,-0.94 -0.92,-3.76 -0.02,-1.09 z"
       id="path1-7" /><path
       d="M 56.76,3.84 C 56.79,2.75 57.25,1.78 57.98,1.09 58.69,0.41 59.67,0 60.73,0.01 V 0 c 0.09,0 0.18,0.01 0.27,0.02 0.99,0.08 1.88,0.53 2.52,1.2 0.68,0.71 1.09,1.68 1.08,2.75 h 0.01 c 0,0.07 0,0.14 -0.01,0.2 l -0.21,8.37 h 0.01 c 0,0.09 -0.01,0.18 -0.02,0.27 -0.08,1 -0.53,1.88 -1.2,2.52 -0.72,0.68 -1.69,1.09 -2.75,1.08 v 0.01 c -0.09,0 -0.18,-0.01 -0.27,-0.02 -1,-0.08 -1.88,-0.53 -2.52,-1.2 -0.68,-0.72 -1.09,-1.69 -1.08,-2.75 h -0.01 c 0,-0.07 0,-0.14 0.01,-0.2 z M 14.26,18.5 c -0.79,-0.74 -1.21,-1.73 -1.25,-2.73 -0.04,-1 0.31,-2.02 1.04,-2.81 0.74,-0.79 1.73,-1.21 2.73,-1.25 1,-0.04 2.02,0.31 2.81,1.04 l 6.28,5.85 c 0.79,0.74 1.21,1.73 1.25,2.73 0.04,1.01 -0.31,2.02 -1.04,2.81 -0.74,0.79 -1.73,1.21 -2.73,1.25 -1.01,0.04 -2.02,-0.31 -2.81,-1.04 z M 3.99,61.66 C 2.93,61.68 1.96,61.27 1.24,60.6 0.51,59.91 0.04,58.95 0,57.86 -0.04,56.78 0.37,55.78 1.06,55.05 1.75,54.32 2.71,53.85 3.8,53.82 l 8.57,-0.29 c 1.08,-0.04 2.08,0.37 2.81,1.06 0.73,0.69 1.2,1.65 1.23,2.74 v 0.06 h 0.01 l -0.01,0.14 c -0.02,1.01 -0.42,1.92 -1.06,2.61 -0.69,0.73 -1.65,1.19 -2.74,1.23 h -0.06 v 0.01 h -0.09 z m 106.7,-12.15 0.13,-0.01 c 1.02,-0.06 1.97,0.27 2.71,0.87 0.78,0.63 1.31,1.57 1.43,2.64 v 0.04 c 0.01,0 0.01,0.11 0.01,0.13 0.06,1.02 -0.27,1.97 -0.87,2.71 -0.63,0.78 -1.57,1.31 -2.64,1.43 l -8.53,0.9 c -1.08,0.11 -2.1,-0.23 -2.87,-0.86 -0.78,-0.63 -1.32,-1.57 -1.43,-2.64 -0.11,-1.07 0.23,-2.1 0.86,-2.87 0.63,-0.78 1.57,-1.32 2.64,-1.43 2.85,-0.31 5.71,-0.64 8.56,-0.91 z M 93.8,15.38 c 0.61,-0.9 1.51,-1.46 2.49,-1.66 0.98,-0.19 2.03,-0.01 2.94,0.59 l 0.01,0.01 c 0.9,0.6 1.47,1.51 1.66,2.49 0.19,0.98 0.01,2.03 -0.59,2.94 l -4.77,7.13 c -0.6,0.9 -1.51,1.47 -2.5,1.67 -0.98,0.19 -2.03,0.01 -2.94,-0.59 -0.9,-0.6 -1.47,-1.52 -1.67,-2.5 -0.19,-0.98 -0.01,-2.03 0.59,-2.94 z"
       id="path2-6" /><path
       class="st0"
       d="M 36.37,82.46 C 33.49,79.17 30.51,75.75 28.15,70.72 25.84,65.76 24.56,60.64 24.6,55.32 24.65,50 26,44.52 28.94,38.86 28.96,38.82 28.98,38.79 29,38.75 v 0 c 3.85,-6.52 9.24,-10.88 15.24,-13.32 5.03,-2.06 10.5,-2.76 15.86,-2.27 5.34,0.49 10.57,2.17 15.14,4.87 5.81,3.44 10.59,8.54 13.22,14.98 1.42,3.49 2.38,7.38 2.5,11.64 0.12,4.25 -0.61,8.83 -2.57,13.67 -3,7.43 -10.01,15.39 -14.6,22.7 C 73.54,90.97 73.28,90.96 73.02,91 63.13,92.47 53.24,93.94 43.35,95.41 41.72,90.56 39.22,85.72 36.37,82.46 Z M 68.47,36.97 C 68.01,36.65 67.48,36.5 66.94,36.61 66.4,36.72 65.95,37 65.63,37.46 l -1.81,2.56 c -0.65,-0.29 -1.31,-0.5 -2.03,-0.68 -0.72,-0.18 -1.38,-0.32 -2.1,-0.43 L 59.12,35.57 C 59.01,35 58.73,34.58 58.31,34.26 57.84,33.94 57.35,33.83 56.78,33.94 l -4.19,0.75 c -0.54,0.11 -0.96,0.36 -1.31,0.82 -0.32,0.47 -0.46,0.96 -0.36,1.53 l 0.54,3.06 c -0.68,0.29 -1.31,0.61 -1.92,0.99 -0.61,0.36 -1.21,0.79 -1.74,1.21 L 44.96,40.34 C 44.49,40.02 44,39.87 43.47,39.98 c -0.54,0.11 -0.99,0.39 -1.31,0.86 l -2.42,3.45 c -0.32,0.46 -0.46,0.99 -0.36,1.53 0.11,0.57 0.39,0.99 0.86,1.31 l 2.55,1.81 c -0.29,0.64 -0.5,1.31 -0.68,2.03 -0.18,0.72 -0.32,1.38 -0.43,2.1 l -3.34,0.57 c -0.57,0.11 -0.99,0.39 -1.31,0.81 -0.32,0.47 -0.43,0.96 -0.32,1.53 l 0.75,4.19 c 0.11,0.54 0.36,0.96 0.81,1.31 0.47,0.32 0.96,0.47 1.53,0.36 l 3.06,-0.54 c 0.29,0.68 0.61,1.31 0.99,1.92 0.36,0.61 0.79,1.21 1.21,1.78 l -1.96,2.8 c -0.32,0.46 -0.46,0.96 -0.36,1.49 0.11,0.54 0.39,0.99 0.85,1.31 l 3.49,2.45 c 0.47,0.32 0.99,0.43 1.53,0.32 0.54,-0.11 0.99,-0.36 1.35,-0.81 l 1.82,-2.59 c 0.65,0.29 1.31,0.5 2.03,0.68 0.72,0.18 1.38,0.32 2.1,0.43 l 0.57,3.34 c 0.11,0.57 0.39,0.99 0.81,1.31 0.47,0.32 0.96,0.43 1.53,0.32 l 4.19,-0.75 c 0.54,-0.11 0.96,-0.36 1.31,-0.81 0.32,-0.46 0.47,-0.96 0.36,-1.53 L 64.14,69.9 c 0.68,-0.29 1.31,-0.61 1.92,-0.99 0.61,-0.36 1.21,-0.78 1.78,-1.21 l 2.81,1.96 c 0.46,0.32 0.96,0.46 1.53,0.36 0.57,-0.11 0.99,-0.39 1.31,-0.85 l 2.45,-3.49 c 0.32,-0.46 0.43,-0.99 0.32,-1.53 -0.11,-0.54 -0.36,-0.99 -0.82,-1.35 l -2.59,-1.78 c 0.29,-0.64 0.5,-1.31 0.68,-2.03 0.18,-0.72 0.32,-1.39 0.43,-2.1 L 77.3,56.32 C 77.87,56.21 78.29,55.93 78.61,55.5 78.9,55.06 79,54.57 78.9,54 L 78.15,49.81 C 78.04,49.27 77.79,48.85 77.34,48.5 76.87,48.18 76.38,48.03 75.81,48.14 l -3.06,0.54 C 72.46,48.03 72.14,47.4 71.76,46.76 71.4,46.11 70.97,45.55 70.55,45.02 l 1.96,-2.84 c 0.32,-0.46 0.46,-0.96 0.36,-1.49 -0.11,-0.54 -0.39,-0.99 -0.85,-1.31 l -3.45,-2.42 z m -12.2,9.89 c 1.1,-0.18 2.21,-0.18 3.31,0.07 1.06,0.25 2.03,0.68 2.91,1.28 0.85,0.61 1.6,1.38 2.21,2.32 0.61,0.92 0.99,1.96 1.17,3.06 0.18,1.1 0.18,2.21 -0.07,3.31 -0.25,1.06 -0.68,2.03 -1.28,2.91 -0.61,0.85 -1.38,1.6 -2.32,2.21 -0.92,0.61 -1.96,0.99 -3.06,1.17 -1.1,0.18 -2.21,0.18 -3.31,-0.07 -1.06,-0.25 -2.03,-0.68 -2.91,-1.28 -0.85,-0.61 -1.6,-1.38 -2.21,-2.31 -0.61,-0.92 -0.99,-1.96 -1.17,-3.06 -0.18,-1.1 -0.18,-2.21 0.07,-3.31 0.25,-1.06 0.68,-2.03 1.28,-2.91 0.61,-0.85 1.39,-1.6 2.32,-2.21 0.94,-0.61 1.96,-1.01 3.06,-1.18 z"
       id="path3" /></g></svg>
