<?xml version="1.0" encoding="UTF-8" standalone="no"?>
<svg
   viewBox="0 0 128 128"
   version="1.1"
   id="svg15"
   sodipodi:docname="react-original.svg"
   inkscape:version="1.4.2 (f4327f4, 2025-05-13)"
   xmlns:inkscape="http://www.inkscape.org/namespaces/inkscape"
   xmlns:sodipodi="http://sodipodi.sourceforge.net/DTD/sodipodi-0.dtd"
   xmlns="http://www.w3.org/2000/svg"
   xmlns:svg="http://www.w3.org/2000/svg">
  <sodipodi:namedview
     id="namedview15"
     pagecolor="#ffffff"
     bordercolor="#000000"
     borderopacity="0.25"
     inkscape:showpageshadow="2"
     inkscape:pageopacity="0.0"
     inkscape:pagecheckerboard="0"
     inkscape:deskcolor="#d1d1d1"
     inkscape:zoom="3.0585938"
     inkscape:cx="114.2682"
     inkscape:cy="54.763728"
     inkscape:window-width="1920"
     inkscape:window-height="1001"
     inkscape:window-x="-9"
     inkscape:window-y="-9"
     inkscape:window-maximized="1"
     inkscape:current-layer="svg15" />
  <defs
     id="defs15">
    <linearGradient
       id="a"
       x1="34.513"
       x2="27.157"
       y1="15.535"
       y2="30.448"
       gradientTransform="translate(-129.242 -73.715) scale(6.18523)"
       gradientUnits="userSpaceOnUse">
      <stop
         stop-color="#3F873F"
         id="stop3" />
      <stop
         offset=".33"
         stop-color="#3F8B3D"
         id="stop4" />
      <stop
         offset=".637"
         stop-color="#3E9638"
         id="stop5" />
      <stop
         offset=".934"
         stop-color="#3DA92E"
         id="stop6" />
      <stop
         offset="1"
         stop-color="#3DAE2B"
         id="stop7" />
    </linearGradient>
    <linearGradient
       id="b"
       x1="30.009"
       x2="50.533"
       y1="23.359"
       y2="8.288"
       gradientTransform="translate(-129.242 -73.715) scale(6.18523)"
       gradientUnits="userSpaceOnUse">
      <stop
         offset=".138"
         stop-color="#3F873F"
         id="stop8" />
      <stop
         offset=".402"
         stop-color="#52A044"
         id="stop9" />
      <stop
         offset=".713"
         stop-color="#64B749"
         id="stop10" />
      <stop
         offset=".908"
         stop-color="#6ABF4B"
         id="stop11" />
    </linearGradient>
    <linearGradient
       id="c"
       x1="21.917"
       x2="40.555"
       y1="22.261"
       y2="22.261"
       gradientTransform="translate(-129.242 -73.715) scale(6.18523)"
       gradientUnits="userSpaceOnUse">
      <stop
         offset=".092"
         stop-color="#6ABF4B"
         id="stop12" />
      <stop
         offset=".287"
         stop-color="#64B749"
         id="stop13" />
      <stop
         offset=".598"
         stop-color="#52A044"
         id="stop14" />
      <stop
         offset=".862"
         stop-color="#3F873F"
         id="stop15" />
    </linearGradient>
  </defs>
  <path
     d="m 102.4026,101.51165 c -5.099999,4.6 0.6,9.3 5.6,6.3 1.1,-1.2 0,-5.2 -5.6,-6.3 z m -73.800002,7.4 c 4,3.4 10.2,-0.9 12,-5.7 -3.9,-5.100004 -18.3,0.2 -12,5.7 z M 104.5026,96.811642 c 0,2.300004 16.8,3.800008 16.8,-0.5 -2.4,-7 -14.8,-6.6 -16.8,0.5 z m 15.6,-41.1 L 73.402598,7.9116424 c -5.7,-5.4999999 -15.2,-5.4999999 -20.6,0 L 7.7025983,54.011642 c -15.2,18.9 10.3999997,16.7 21.2999997,22.1 3.9,4 -15.1,7 -11.1,11 3.9,4 23.8,7.7 27.7,11.800004 l -4.1,12.300004 c 3.9,4 13,0.2 14.7,9.5 1.2,6.6 16.4,2.8 23.8,-2.6 3.900003,-4 -7.5,-3.6 -3.6,-7.7 9.800003,-10 18.900003,-3.6 22.200003,-13.700008 1.699999,-5 -14.4,-7.6 -10.5,-11.7 11.4,-6.5 50.499999,-10.8 31.999999,-29.3 z m -56.000002,31.1 c -4.8,1.3 -28,-8.2 -22.2,-8.2 1.2,0.7 19.4,4.4 23.9,5.2 1.6,0.3 0.5,1.9 -1.7,3 z m 25.100003,-51.5 -8.8,-7.1 -1.700003,10.5 -7.4,-3.9 -11.8,7.5 -3.9,-15.5 -6.5,11.2 h -9.7 c -4,0 -4.4,-5.3 -0.8,-8.9 6.3,-6.8 13.5,-13.8 17.4,-17.8 3.9,-3.9999995 10.8,-3.9999995 14.7,-0.1 l 17.800003,18.1 c 1.7,1.7 1.7,5 0.7,6 z"
     id="path1"
     style="fill:#ffffff" />
</svg>
