<?xml version="1.0" encoding="UTF-8" standalone="no"?>
<svg
   xml:space="preserve"
   viewBox="0 0 128 128"
   version="1.1"
   id="svg2"
   sodipodi:docname="github-icon.svg"
   inkscape:version="1.4.2 (f4327f4, 2025-05-13)"
   xmlns:inkscape="http://www.inkscape.org/namespaces/inkscape"
   xmlns:sodipodi="http://sodipodi.sourceforge.net/DTD/sodipodi-0.dtd"
   xmlns="http://www.w3.org/2000/svg"
   xmlns:svg="http://www.w3.org/2000/svg"><defs
     id="defs2"><style
       id="style1">.cls-1{fill:#0a66c2;}.cls-1,.cls-2{fill-rule:evenodd;}.cls-2{fill:#fff;}</style></defs><sodipodi:namedview
     id="namedview2"
     pagecolor="#ffffff"
     bordercolor="#000000"
     borderopacity="0.25"
     inkscape:showpageshadow="2"
     inkscape:pageopacity="0.0"
     inkscape:pagecheckerboard="0"
     inkscape:deskcolor="#d1d1d1"
     showgrid="false"
     inkscape:zoom="3.0585938"
     inkscape:cx="53.128991"
     inkscape:cy="72.745849"
     inkscape:window-width="1920"
     inkscape:window-height="1001"
     inkscape:window-x="-9"
     inkscape:window-y="-9"
     inkscape:window-maximized="1"
     inkscape:current-layer="svg2" /><g
     id="g2"
     transform="matrix(1.0347504,0,0,1.0347504,0.71453384,0.72878034)"><path
       class="cls-1"
       d="m 27.75,0 h 67.38 a 27.83,27.83 0 0 1 27.75,27.75 V 94.57 A 27.83,27.83 0 0 1 95.13,122.31 H 27.75 A 27.83,27.83 0 0 1 0,94.57 V 27.75 A 27.83,27.83 0 0 1 27.75,0 Z"
       id="path1" /><path
       class="cls-2"
       d="m 49.19,47.41 h 15.53 v 8 h 0.22 c 2.17,-3.88 7.45,-8 15.34,-8 16.39,0 19.42,10.2 19.42,23.47 V 98.94 H 83.51 V 74 c 0,-5.71 -0.12,-13.06 -8.42,-13.06 -8.3,0 -9.72,6.21 -9.72,12.65 v 25.4 H 49.19 Z M 40,31.79 A 8.42,8.42 0 1 1 31.58,23.37 8.43,8.43 0 0 1 40,31.79 Z M 23.18,47.41 H 40 V 98.94 H 23.18 Z"
       id="path2" /></g></svg>
